<svg width="632" height="440" viewBox="0 0 632 440" fill="none" xmlns="http://www.w3.org/2000/svg">
<path d="M313.946 246.547C314.557 246.459 314.579 243.324 314.23 243.278C312.96 243.135 312.528 246.734 313.946 246.547Z" stroke="#B2B2B2" stroke-miterlimit="10"/>
<path d="M178.145 290.542C179.194 290.167 185.98 291.673 185.947 289.553C185.925 288.159 178.866 286.272 178.089 286.916C178.18 287.828 178.574 288.692 179.209 289.372C179.22 290.055 176.283 289.26 176.041 289.954C176.252 290.304 176.591 290.561 176.984 290.671C177.378 290.781 177.795 290.735 178.145 290.542Z" stroke="#B2B2B2" stroke-miterlimit="10"/>
<path d="M138.358 275.669C138.164 280.999 138.757 293.682 147.791 289.328C150.788 287.904 148.314 283.587 153.184 283.784C156.108 283.911 155.577 288.307 153.719 290.191C153.265 290.656 152.135 295.196 153.189 294.63C154.698 293.696 159.596 293.963 160.848 295.297C162.1 296.632 160.601 297.33 161.07 298.722C162.732 303.83 160.086 304.525 165.925 306.8C163.998 306.051 173.189 307.199 171.017 307.804C172.312 307.49 172.786 305.641 174.016 304.745C174.611 304.325 180.144 300.57 180.95 301.094C179.833 300.33 180.405 309.023 181.471 306.643C181.85 305.817 181.125 301.554 183.516 301.59C185.069 301.613 185.826 304.366 186.892 304.618C189.629 305.268 193.685 303.555 195.81 304.418C194.488 303.927 199.294 308.057 197.673 308.13C201.585 307.938 201.695 311.292 204.74 312.847C207.785 314.402 210.519 314.027 213.883 316.237C217.367 318.159 214.641 325.238 214.472 325.139C214.57 325.14 216.434 322.785 217.541 323.799C218.648 324.813 217.626 327.402 217.415 327.315C218.485 327.775 219.637 324.62 220.831 324.956C220.873 324.957 227.959 328.289 225.292 329.344C227.682 328.396 227.798 328.688 230.601 329.104C233.657 329.579 236.512 333.222 239.306 333.111C247.356 332.815 234.671 346.7 234.587 346.699C233.414 348.565 234.125 354.532 233.547 356.878C232.587 360.686 231.711 363.624 228.471 365.626C225.951 367.181 221.366 366.421 219.367 369.951C218.375 371.709 219.31 374.244 218.614 376.187C218.132 377.537 214.211 380.706 214.23 381.884C214.788 381.137 215.245 380.32 215.59 379.452C215.601 379.272 212.324 385.124 211.664 385.821C208.996 388.607 204.05 386.207 203.004 387.272C203.073 387.203 206.254 391.157 206.104 392.276C205.374 397.335 198.743 394.494 196.969 396.365C196.598 396.803 197.475 399.185 196.754 399.576C197.017 399.427 191.759 401.15 192.388 400.204C190.394 403.235 194.277 402.946 194.773 403.369C194.787 403.37 192.791 405.362 192.202 406.101C190.841 408.285 189.881 410.699 189.365 413.234C189.274 413.635 191.386 413.666 191.296 415.05C191.184 416.779 189.077 417.953 188.235 419.506C187.61 420.66 186.609 420.992 186.055 422.244C185.746 423.043 187.523 425.728 187.193 426.042C186.862 426.356 185.696 425.147 185.458 426.016C185.22 426.886 186.503 426.641 186.868 426.73C187.289 426.833 190.165 430.92 192.443 431.771C190.858 432.281 189.211 432.596 187.537 432.71C187.171 432.607 188.289 434.286 187.657 434.097C186.46 433.369 185.308 432.57 184.207 431.705C184.103 432.196 183.912 432.662 183.641 433.081C183.698 433.11 181.588 430.572 181.598 431.209C181.616 432.373 182.919 429.012 182.331 429.835C182.573 429.777 182.83 429.815 183.051 429.939C183.271 430.063 183.438 430.265 183.516 430.503C183.63 430.63 183.209 428.795 183.942 429.124C183.986 429.658 184.24 430.159 184.649 430.52C184.497 430.601 185.015 428.046 185.442 428.509C184.975 428.525 184.505 428.49 184.042 428.406C184.02 428.074 184.089 427.745 184.242 427.454C184.395 427.164 184.626 426.923 184.911 426.756C184.75 427.225 181.657 428.786 181.137 429.471C180.616 430.155 182.136 429.859 181.489 430.515C181.103 430.883 178.646 429.351 178.512 428.822C178.631 429.295 182.843 427.737 182.582 427.179C181.377 427.366 180.186 427.621 179.015 427.943C179.111 427.82 181.974 425.868 182.136 426.341C181.591 424.657 178.919 427.18 178.476 426.564C177.303 424.94 180.675 425.918 180.351 424.916C180.027 423.914 178.476 424.819 177.786 424.559C177.59 424.487 178.833 423.536 178.731 423.313C178.385 422.629 176.68 423.573 176.509 423.377C175.668 422.339 179.137 419.842 177.916 418.633C177.333 418.056 177.157 420.145 176.751 420.139C174.676 419.776 177.701 416.566 177.325 416.643C176.976 416.979 176.586 417.271 176.164 417.512C173.639 417.863 179.043 413.94 178.933 415.794C179.011 414.563 177.258 415.95 177.146 415.103C177.082 414.603 175.481 411.505 175.377 412.888C175.39 412.833 178.557 407.977 177.501 408.432C178.668 407.937 177.781 411.068 178.234 411.379C179.11 411.988 180.325 401.341 179.476 401.577C178.626 401.814 178.338 406.561 177.451 405.301C175.534 402.585 180.445 388.71 180.99 386.045C182.379 379.334 182.466 372.506 183.138 365.591C183.593 360.749 184.527 357.993 181.381 354.484C177.936 350.623 174.879 350.093 172.427 345.403C171.2 342.933 165.745 335.843 165.246 333.454C164.988 332.217 167.414 328.236 167.241 327.943C164.824 323.654 167.482 322.904 169.514 318.779C171.368 314.928 172.134 308.582 167.333 307.403C166.252 307.137 166.963 309.627 164.821 309.457C162.679 309.287 160.217 306.618 158.797 305.212C157.93 304.368 157.474 302.963 155.939 301.402C153.666 299.111 152.704 300.177 150.292 297.98C149.425 297.095 147.452 297.024 146.217 295.842C143.476 293.184 139.939 294.115 136.566 293.012C133.979 292.17 129.519 290.414 127.558 288.432C124.643 285.397 124.156 281.165 120.874 277.03C118.947 274.606 115.789 272.107 114.027 269.435C113.396 268.47 113.02 263.284 109.669 263.567C109.473 263.592 118.941 280.326 118.139 280.896C118.457 280.665 109.784 271.686 109.783 271.603C110.132 269.793 109.699 268.97 107.76 265.783C106.529 263.479 105.06 261.303 103.378 259.291C100.633 256.397 96.5904 253.636 95.0125 249.388C92.7047 243.204 95.8587 236.685 93.7828 231.017C93.4312 230.014 87.9249 222.3 86.9292 222.992C91.6314 219.738 96.0789 231.203 96.2328 231.205C100.303 231.266 92.7914 224.963 92.9896 225.118C90.858 223.798 88.8969 222.219 87.1538 220.419C86.7831 219.97 83.9983 217.2 83.5981 216.654C83.0128 215.898 83.1223 212.242 82.1273 212.103C81.1323 211.964 79.2172 213.75 78.7648 213.438C78.5815 212.414 78.4808 211.38 78.4637 210.345C79.9023 210.242 81.5353 208.299 79.4123 208.448C78.0154 208.538 80.5563 210.044 80.0428 210.285C81.6528 209.534 76.1761 209.812 76.989 209.935C77.5496 210.013 77.3811 204.705 77.1932 205.201C77.3007 204.926 77.2054 208.595 76.3064 207.46C76.3398 207.032 76.2556 206.6 76.0627 206.209C75.2609 205.907 76.4992 209.028 75.9999 209.283C76.0831 209.243 73.3524 205.477 73.3497 205.31C73.3521 205.463 78.4879 204.846 74.937 202.259C74.782 202.933 74.8777 203.647 75.2068 204.271C75.2349 206.031 67.8057 199.618 68.146 199.914C67.437 199.294 56.4937 199.617 56.244 198.865C56.2627 198.744 56.3073 198.628 56.375 198.527C56.4426 198.425 56.5318 198.339 56.6365 198.275C56.7412 198.211 56.8591 198.171 56.9825 198.156C57.1058 198.141 57.2317 198.152 57.3518 198.189C57.2399 198.187 54.7126 196.654 54.085 196.756C52.1744 197.073 54.939 199.455 54.1327 199.748C53.3264 200.041 48.0824 201.764 47.7561 201.468C46.6353 200.454 51.3153 196.687 51.3195 196.95C51.5586 194.405 43.733 200.841 44.0533 201.635C44.5305 201.794 44.9757 202.04 45.3653 202.361C45.4008 204.591 31.4811 213.804 30.0587 212.287C31.2953 213.552 38.8794 204.245 39.5056 202.301C39.772 201.474 35.028 202.983 36.2103 203.472C34.8873 202.926 32.5141 203.167 31.823 202.797C30.8076 202.256 31.9602 200.001 30.8521 198.904C31.278 199.312 27.7958 199.274 26.6472 198.274C26.6046 198.232 24.6649 194.089 24.3756 194.362C25.3076 193.721 26.1889 193.012 27.0124 192.24C28.3959 190.432 28.7287 192.016 29.6932 191.117C30.6576 190.217 34.6047 187.837 32.7439 186.009C32.7152 185.967 26.1779 187.255 24.9538 186.78C24.6865 186.679 22.0211 182.623 21.6307 183.573C22.7751 180.806 33.4975 181.532 33.4948 181.366C32.7324 179.153 23.21 178.263 24.0406 174.231C24.4572 172.298 33.3492 170.477 34.5312 169.193C36.0016 167.58 39.2789 166.16 40.5457 167.564C41.2443 168.406 52.7187 169.822 54.5671 169.988C55.8136 170.118 74.7039 174.484 74.429 174.784C75.13 174.019 72.9893 173.059 75.9653 172.037C77.1752 171.626 76.4853 173.084 77.1927 172.72C77.9 172.357 84.0538 169.816 84.0675 170.675C84.0788 170.509 76.9885 174.822 78.0654 174.838C80.0114 173.923 81.8998 172.896 83.7213 171.764C83.4303 171.926 87.7138 168.721 86.3185 168.908C88.3696 168.633 88.1988 172.828 89.9352 172.992C90.8064 172.395 91.5733 171.663 92.2078 170.823C93.0347 170.947 92.4436 173.334 92.7093 173.338C94.5135 173.365 95.2327 171.99 97.1801 172.227C98.792 172.472 100.108 173.462 101.933 173.904C103.758 174.347 108.739 174.559 109.652 176.595C109.899 177.153 106.756 177.328 107.638 178.283C109.445 180.235 114.832 177.877 117.223 178.702C118.979 179.226 118.661 181.202 119.225 181.502C120.522 182.2 120.755 173.975 122.775 176.166C122.291 175.633 119.303 177.638 118.486 177.266C117.359 176.751 120.985 175.267 121.531 175.275C123.071 175.45 123.044 176.336 123.9 176.543C126.834 177.279 128.231 178.962 131.595 178.582C138.964 177.75 132.788 175.331 133.473 174.455C133.795 173.971 134.215 173.56 134.708 173.248C135.201 172.935 135.756 172.728 136.34 172.638C136.924 172.548 137.523 172.578 138.102 172.725C138.681 172.872 139.228 173.134 139.708 173.495C140.402 174.045 138.428 173.905 138.432 174.168C138.436 174.432 142.128 174.486 140.64 175.849C140.447 176.04 136.583 176.565 136.741 176.844C137.805 178.065 138.944 179.22 140.152 180.302C139.904 180.52 142.686 175.256 142.614 175.103C142.346 175.084 142.084 175.168 141.883 175.338C141.682 175.508 141.558 175.751 141.538 176.015C144.12 173.962 138.533 172.632 138.238 171.672C137.458 169.209 139.54 168.243 139.684 167.635C140.171 165.703 139.898 160.865 140.214 159.665C140.768 157.554 144.661 157.93 147.332 158.801C150.002 159.671 142.437 164.906 142.209 162.88C142.711 167.182 141.504 163.355 143.257 167.19C143.257 167.19 145.861 171.785 146.12 171.387C145.915 171.689 143.966 172.214 145.143 173.243C145.072 173.186 148.745 172.881 148.175 173.967C148.093 174.118 146.775 177.395 147.974 177.191C148.309 177.099 149.248 173.761 149.915 174.352C150.793 175.072 151.49 176.703 152.001 177.154C152.199 177.337 152.352 179.901 153.648 180.516C154.945 181.131 152.984 177.418 153.977 177.432C154.134 177.852 154.389 178.231 154.722 178.538C157.064 177.215 155.821 172.958 156.684 172.694C158.799 172.616 160.886 173.358 162.506 174.761C163.409 176.201 160.624 176.921 160.628 177.143C160.772 179.14 163.6 179.403 161.787 181.426C159.424 184.051 157.543 180.976 157.02 181.48C156.868 181.631 158.699 183.32 158.209 183.313C157.51 183.302 154.054 183.14 154.181 183.253C157.868 186.466 148.714 185.873 148.847 184.559C148.64 186.509 152.814 186.044 153.577 186.582C155.387 187.842 148.276 190.839 148.782 189.281C147.69 192.659 143.436 188.094 142.777 189.705C142.75 189.787 147.702 191.689 147.706 191.952C147.662 191.772 141.749 198.042 141.519 199.423C140.639 204.729 142.311 201.748 143.963 204.474C144.25 204.921 145.566 208.556 144.91 208.643C147.339 208.184 149.88 208.62 152.061 209.871C153.708 210.588 161.123 213.468 161.736 214.17C163.245 215.868 161.521 219.126 164.103 221.422C166.4 223.464 165.49 221.595 167.519 222.567C167.828 222.71 167.155 218.198 167.246 217.728C167.45 216.54 165.966 215.507 166.244 214.528C166.456 213.797 169.499 213.482 169.982 212.215C171.58 208.055 168.836 206.976 168.155 203.711C168.064 203.266 168.869 200.3 168.858 199.566C169.126 195.373 166.925 195.008 172.28 194.935C172.993 194.931 182.506 197.87 182.523 198.951C182.563 201.431 182.254 205.762 186.072 205.818C189.527 205.856 188.343 201.794 190.301 200.05C190.011 200.309 194.186 206.036 194.494 206.955C195.653 210.338 195.628 207.927 193.97 210.063C193.148 211.131 202.378 215.618 202.378 215.618C201.916 216.414 197.639 216.517 197.985 218.073C197.999 218.088 202.237 216.391 202.647 216.674C202.623 217.139 202.668 217.606 202.781 218.061C206.985 218.622 203.154 219.508 204.218 220.493C204.603 220.665 204.969 220.85 205.318 221.049C206.657 224.394 191.375 225.303 190.274 225.536C187.57 226.105 181.946 232.947 180.688 232.929C183.275 232.967 185.077 227.564 188.861 228.105C194.339 228.823 188.667 229.972 189.153 231.517C189.636 231.557 190.117 231.468 190.547 231.26C192.243 232.394 190.233 235.245 194.553 236.098C195.907 235.626 197.086 234.779 197.954 233.656C197.84 234.416 198.726 235.579 198.628 235.577C196.956 236.827 193.564 238.965 191.304 239.264C186.881 239.849 188.612 237.936 192.301 236.91C191.299 237.186 190.464 235.705 190.64 235.348C189.246 238.277 184.54 237.764 182.697 239.676C181.792 241.121 181.217 242.752 181.011 244.458C180.431 244.865 176.23 244.525 176.252 245.911C176.254 245.994 178.905 245.645 178.729 246.031C178.337 246.856 173.176 248.552 173.192 249.55C173.142 250.796 174.203 252.418 172.626 253.489C172.695 253.448 171.447 248.804 172.062 248.813C170.468 248.789 171.483 253.735 171.489 254.095C171.25 257.555 173.463 254.236 171.161 257.179C170.216 258.467 167.025 260.886 165.658 262.86C164.606 264.41 165.081 277.548 164.927 277.545C163.03 276.908 162.636 273.259 161.775 271.861C159.592 268.241 160.248 269.096 157.438 268.209C155.941 267.57 154.348 267.204 152.736 267.128C151.005 267.269 149.781 269.481 151.281 269.683C145.564 268.933 138.712 266.297 138.358 275.669ZM138.358 275.669C138.242 275.588 138.119 275.517 137.991 275.456" stroke="#B2B2B2" stroke-miterlimit="10"/>
<path d="M176.264 286.708C178.096 284.195 156.766 279.354 159.484 283.245C158.19 281.384 167.936 283.98 168.432 284.238C170.093 285.169 174.031 289.761 176.264 286.708Z" stroke="#B2B2B2" stroke-miterlimit="10"/>
<path d="M169.548 289.996C169.852 290.544 172.607 291.365 172.891 290.672C173.176 289.978 169.257 289.308 169.548 289.996Z" stroke="#B2B2B2" stroke-miterlimit="10"/>
<path d="M188.238 290.365C188.901 291.474 190.76 290.847 190.907 290.404C191.19 289.614 187.63 289.242 188.238 290.365Z" stroke="#B2B2B2" stroke-miterlimit="10"/>
<path d="M200.169 424.272C201.045 424.756 202.815 422.439 202.014 422.274C201.213 422.11 199.35 423.816 200.169 424.272Z" stroke="#B2B2B2" stroke-miterlimit="10"/>
<path d="M202.366 424.447C202.947 424.775 205.301 423.74 205.012 423.166C204.417 421.975 201.786 424.174 202.366 424.447Z" stroke="#B2B2B2" stroke-miterlimit="10"/>
<path d="M148.558 322.253C147.865 323.404 149.306 324.573 149.591 324.052C149.876 323.531 149.266 321.088 148.558 322.253Z" stroke="#B2B2B2" stroke-miterlimit="10"/>
<path d="M212.068 174.783C212.193 172.004 207.834 173.33 207.174 173.32C206.514 173.31 211.926 178.202 212.068 174.783Z" stroke="#B2B2B2" stroke-miterlimit="10"/>
<path d="M261.217 173.635C260.689 173.933 254.196 172.85 254.198 172.961C254.373 172.533 256.493 170.108 256.211 170.006C257.621 170.555 261.778 175.393 261.833 170.965C261.903 168.342 258.173 168.273 257.551 166.167C257.359 165.567 262.54 167.879 261.466 164.712C260.863 162.926 255.879 165.906 256.03 163.993C256.041 164.645 257.731 161.658 257.4 162C258.984 160.26 266.371 166.409 261.578 160.285C261.377 160.032 265.781 160.181 266.019 159.282C266.257 158.384 261.59 158.453 262.614 156.747C263.898 154.614 267.257 157.788 265.055 153.368C265.127 153.508 259.687 151.608 260.501 150.815C261.315 150.022 267.692 150.853 267.495 149.947C266.842 147.647 263.74 150.016 263.456 148.041C263.299 147.011 265.363 148.069 265.649 147.56C266.784 145.772 260.68 147.125 260.907 147.295C259.232 146.007 267.534 138.342 267.777 138.679C266.188 136.614 264.827 140.023 263.716 138.91C262.605 137.797 269.784 137.043 269.992 136.921C270.589 136.541 266.129 135.558 265.939 135.889C266.689 134.581 277.066 134.902 277.021 132.069C276.96 128.251 267.204 131.757 266.074 132.101C265.223 132.352 263.957 131.222 263.358 131.436C261.393 132.156 259.636 135.309 257.509 135.583C259.58 135.308 261.855 130.372 258.467 129.725C257.933 129.633 252.267 133.797 251.894 132.403C251.583 131.385 255.321 131.066 255.222 130.148C255.011 128.396 243.04 130.966 243.022 130.702C242.801 128.283 259.712 129.563 261.371 127.269C262.304 126.033 239.814 122.103 237.79 122.586C237.287 122.704 234.248 123.741 233.926 123.778C233.222 123.687 232.515 123.64 231.807 123.635C228.001 124.009 224.267 123.704 220.479 124.369C220.004 124.445 222.158 125.893 222.132 126.004C222.105 126.115 218.8 126.302 219.258 126.905C220.82 127.957 222.297 129.131 223.674 130.414C221.005 130.93 215.986 124.746 213.298 126.705C212.647 127.182 215.308 128.818 215.314 129.193C215.338 130.665 209.89 127.446 210.044 127.448C209.638 127.442 209.843 130.638 209.093 131.099C211.398 129.745 206.164 127.599 205.349 127.503C204.465 127.414 203.582 127.596 202.822 128.024C202.061 128.452 201.46 129.106 201.098 129.897C199.885 130.296 198.081 128.811 196.521 129.413C195.407 129.854 197.54 131.746 196.011 132.584C195.594 132.8 184.705 132.902 186.259 136.284C187.407 138.842 193.267 136.264 188.092 140.476C186.709 141.608 182.495 141.073 180.776 142.256C172.524 147.769 188.518 144.287 188.414 147.437C188.419 147.784 179.895 147.671 180.02 148.45C180.263 149.592 186.053 152.316 187.583 152.477C190.687 152.815 193.622 150.568 197.79 152.63C199.765 153.564 201.541 154.879 203.012 156.494C204.483 158.11 205.619 159.993 206.351 162.031C207.688 166.729 204.697 167.282 209.646 167.355C210.905 169.021 212.339 170.551 213.924 171.917C213.759 172.067 208.367 169.752 208.388 171.085C208.439 174.251 215.875 172.057 213.974 177.637C213.679 178.48 211.305 177.265 210.631 178.976C210.106 180.096 209.838 181.324 209.848 182.574C209.758 184.835 213.333 192.746 215.926 196.242C218.003 199.049 219.216 199.484 222.124 200.804C226.671 202.885 225.624 203.119 228.102 199.422C229.074 197.979 227.537 196.526 227.911 195.407C228.112 194.813 230.061 194.856 230.321 193.596C230.673 191.949 230.405 189.238 230.604 188.519C231.145 188.471 231.694 188.551 232.206 188.752C232.428 188.63 235.172 184.936 235.509 184.941C235.72 185.133 235.859 185.389 235.902 185.666C235.945 185.943 235.889 186.223 235.743 186.458C236.303 188.16 242.69 182.577 242.786 182.481C245.211 180.754 244.859 180.624 247.031 179.699C251.861 177.605 257.3 175.895 261.217 173.635Z" stroke="#B2B2B2" stroke-miterlimit="10"/>
<path d="M95.6586 152.229C97.0516 151.483 97.0637 152.249 98.1002 151.165C98.4011 151.701 98.7994 152.179 99.2742 152.574C100.946 152.599 101.565 149.058 102.615 148.864C103.666 148.671 102.974 152.03 105.355 149.754C106.254 148.89 106.031 148.079 106.915 147.117C104.974 146.891 103.019 146.914 101.1 147.185C99.1297 147.853 95.6592 152.271 95.6586 152.229Z" stroke="#B2B2B2" stroke-miterlimit="10"/>
<path d="M106.422 150.877C104.007 151.037 107.771 152.652 107.638 152.288C106.644 152.281 105.675 152.546 104.839 153.055C104.413 153.662 107.277 153.481 106.956 153.587C105.909 153.619 104.905 153.964 104.076 154.577C105.657 156.829 108.295 154.749 109.464 154C108.838 154.395 113.24 155.518 113.529 155.076C113.117 155.711 109.007 156.209 109.087 156.879C109.345 159 117.314 156.288 118.487 155.803C122.439 154.147 123.627 155.544 121.704 152.116C121.863 152.397 117.373 149.267 116.676 149.633C114.612 150.675 117.949 152.856 117.511 153.588C116.36 155.508 112.276 151.338 111.33 151.073C109.721 150.624 108.039 150.556 106.422 150.877Z" stroke="#B2B2B2" stroke-miterlimit="10"/>
<path d="M133.797 167.961C136.745 170.168 140.004 162.118 138.182 161.98C137.939 162.178 137.774 162.455 137.715 162.764C137.657 163.074 137.707 163.397 137.859 163.681C138.062 163.254 135.443 162.341 135.501 162.439C134.926 161.557 139.171 160.83 136.382 158.93C134.315 157.512 134.595 160.082 134.622 160.068C134.984 159.907 128.49 159.242 130.578 161.104C131.276 161.322 131.991 161.472 132.714 161.552C135.184 163.682 128.528 162.46 129.17 162.345C127.215 162.662 133.187 167.508 133.797 167.961Z" stroke="#B2B2B2" stroke-miterlimit="10"/>
<path d="M92.604 166.066C93.439 166.963 94.2265 167.903 94.9633 168.88C96.717 168.906 98.5286 166.404 99.3882 165.778C101.634 164.13 104.821 162.524 107.092 160.682C107.936 160 96.5627 156.608 95.0969 157.044C90.3643 158.447 94.4871 157.508 92.9851 160.07C92.5207 160.855 90.0339 164.986 90.3628 165.38C91.0581 165.76 91.8215 165.993 92.604 166.066Z" stroke="#B2B2B2" stroke-miterlimit="10"/>
<path d="M101.137 153.45C102.43 153.622 103.714 152.391 103.632 151.682C103.551 150.972 100.491 153.357 101.137 153.45Z" stroke="#B2B2B2" stroke-miterlimit="10"/>
<path d="M178.319 169.744C178.691 169.75 179.045 169.609 179.304 169.352C179.563 169.096 179.705 168.745 179.699 168.376C180.038 169.409 174.242 166.338 173.72 166.163C172.437 165.714 173.204 164.559 171.135 164.07C169.728 163.73 167.588 165.78 167.659 165.795C165.727 165.1 166.539 165.904 164.38 165.871C162.781 165.848 165.349 157.264 158.475 161.299C154.308 163.722 157.835 165.107 158.059 167.735C158.066 168.179 154.932 166.772 155.026 164.774C155.12 162.776 157.382 161.352 157.364 160.213C157.33 158.103 149.876 162.67 149.537 164.262C149.068 166.476 152.378 170.968 153.668 169.252C153.339 169.692 150.142 168.783 150.24 169.618C150.775 174.179 167.303 171.579 167.668 172.515C167.445 172.37 167.254 172.182 167.105 171.962C166.957 171.742 166.855 171.496 166.807 171.239C167.019 170.478 172.694 174.77 172.742 175.118C172.111 175.475 171.577 175.976 171.182 176.58C172.262 177.498 173.425 175.725 175.235 177.584C177.273 179.683 177.238 179.252 177.765 182.398C177.874 183.052 183.844 181.225 182.794 183.958C181.745 186.692 180.119 183.211 179.324 183.449C178.529 183.687 176.525 183.726 175.408 184.043C175.226 184.04 176.002 186.093 176.085 186.052C174.416 186.846 171.642 186.083 170.37 187.161C165.653 191.145 175.513 188.834 176.866 189.271C178.218 189.708 186.637 199.843 188.736 196.973C189.257 196.245 185.021 191.711 184.254 191.922C187.394 191.066 192.118 196.315 190.379 191.041C189.599 188.697 183.975 186.781 186.369 183.942C187.373 182.735 191.703 187.951 192.418 187.948C192.418 187.948 196.555 183.664 196.555 183.691C196.509 180.789 184.944 179.048 185.222 176.248C185.921 175.944 186.673 175.767 187.442 175.725C186.924 175.21 186.271 174.848 185.561 174.684C185.324 172.959 187.372 173.072 184.442 173.029C186.573 173.06 181.46 170.694 181.277 170.635C180.643 170.431 178.319 169.744 178.319 169.744Z" stroke="#B2B2B2" stroke-miterlimit="10"/>
<path d="M79.0335 215.981C77.7184 216.737 80.7802 220.422 81.5678 219.88C81.8166 219.718 80.9857 214.889 79.0335 215.981Z" stroke="#B2B2B2" stroke-miterlimit="10"/>
<path d="M126.575 155.28C127.069 154.664 125.465 153.308 125.048 154.398C124.632 155.487 126.067 155.911 126.575 155.28Z" stroke="#B2B2B2" stroke-miterlimit="10"/>
<path d="M166.307 197.296C166.81 197.303 167.785 195.296 166.486 195.346C165.186 195.396 165.526 197.409 166.307 197.296Z" stroke="#B2B2B2" stroke-miterlimit="10"/>
<path d="M173.373 180.866C177.301 180.202 169.516 177.282 170.823 178.384C171.661 179.063 168.647 181.657 173.373 180.866Z" stroke="#B2B2B2" stroke-miterlimit="10"/>
<path d="M159.898 195.515C161.075 196.324 162.765 194.169 162.672 193.598C162.578 193.027 158.495 194.55 159.898 195.515Z" stroke="#B2B2B2" stroke-miterlimit="10"/>
<path d="M145.515 155.666C146.193 157.714 162.755 158.703 164.65 157.432C172.209 152.038 148.409 154.409 148.706 152.668C149.078 152.183 149.516 151.752 150.009 151.388C150.589 150.628 136.98 147.712 138.032 149.333C140.898 153.716 143.511 149.676 145.515 155.666Z" stroke="#B2B2B2" stroke-miterlimit="10"/>
<path d="M128.906 172.934C129.291 172.438 131.169 173.983 131.222 172.884C131.21 172.119 125.643 168.155 125.131 166.909C124.845 165.23 124.696 163.534 124.686 161.839C125.337 161.264 125.257 160.651 124.432 159.998C123.881 159.801 123.289 159.765 122.727 159.895C122.166 160.025 121.66 160.316 121.271 160.731C122.042 161.273 122.733 161.921 123.323 162.653C123.317 162.292 119.687 160.93 119.333 161.648C118.844 162.643 121.051 166.348 120.368 166.686C120.243 166.754 115.425 161.326 115.163 162.533C115.659 162.964 116.08 163.474 116.409 164.04C116.412 164.235 113.782 164.001 113.944 164.449C111.955 159.439 110.49 165.386 108.723 163.746C108.552 163.576 111.647 161.257 107.953 161.189C106.548 161.168 102.915 163.146 102.386 164.32C100.317 169.354 105.076 165.751 107.108 167.27C107.222 167.369 102.914 168.418 102.923 169.017C102.965 171.661 113.242 168.891 113.277 171.131C113.286 171.688 103.98 170.994 104.34 172.488C105.361 176.677 117.173 175.988 119.556 175.69C120.817 175.405 122.108 175.252 123.41 175.232C124.21 175.244 130.861 177.595 130.018 174.912C129.353 172.815 127.879 175.506 127.337 174.079C127.787 173.609 128.317 173.221 128.906 172.934Z" stroke="#B2B2B2" stroke-miterlimit="10"/>
<path d="M192.078 226.878C192.228 227.507 196.461 229.449 196.588 228.587C196.715 227.725 191.943 226.332 192.078 226.878Z" stroke="#B2B2B2" stroke-miterlimit="10"/>
<path d="M149.061 146.529C147.759 145.801 146.141 147.278 147.498 147.895C148.854 148.513 150.376 147.215 149.061 146.529Z" stroke="#B2B2B2" stroke-miterlimit="10"/>
<path d="M137.736 145.42C146.154 145.545 136.132 140.714 135.585 141.623C135.039 142.532 136.74 145.405 137.736 145.42Z" stroke="#B2B2B2" stroke-miterlimit="10"/>
<path d="M138.577 137.707C138.577 137.707 145.318 140.864 144.951 139.83C145.141 140.361 141.913 141.091 142.084 141.274C143.111 142.485 144.437 143.412 145.925 143.959C147.413 144.506 149.01 144.654 150.55 144.387C150.76 144.39 156.693 139.102 156.539 140.003C156.322 141.389 152.025 135.768 151.783 135.542C151.541 135.316 142.544 130.57 141.685 131.224C141.768 131.462 141.914 131.676 142.106 131.842C142.299 132.009 142.532 132.122 142.78 132.171C142.788 132.657 140.579 132.235 140.389 132.635C140.801 132.961 141.199 133.287 141.598 133.64C141.162 134.467 138.617 133.193 138.812 134.849C139.355 135.493 140.035 136.011 140.8 136.365C140.856 137.241 136.015 136.28 138.577 137.707Z" stroke="#B2B2B2" stroke-miterlimit="10"/>
<path d="M164.069 160.562C162.323 164.812 171.5 163.957 171.485 163.024C171.463 161.589 164.57 159.343 164.069 160.562Z" stroke="#B2B2B2" stroke-miterlimit="10"/>
<path d="M143.567 145.85C143.419 145.373 137.941 146.022 138.81 146.732C140.305 147.926 143.757 146.328 143.567 145.85Z" stroke="#B2B2B2" stroke-miterlimit="10"/>
<path d="M110.098 145.388C110.449 144.461 107.698 144.574 107.928 144.897C108.445 145.614 109.762 146.343 110.098 145.388Z" stroke="#B2B2B2" stroke-miterlimit="10"/>
<path d="M142.095 154.198C140.914 153.235 137.524 155.523 138.007 155.864C139.9 157.478 146.406 157.727 142.095 154.198Z" stroke="#B2B2B2" stroke-miterlimit="10"/>
<path d="M125.231 147.833C125.792 147.065 122.882 144.513 122.747 145.689C122.612 146.865 124.642 148.656 125.231 147.833Z" stroke="#B2B2B2" stroke-miterlimit="10"/>
<path d="M131.643 149.172C129.919 148.424 132.414 151.756 132.146 151.683C131.314 151.036 130.345 150.588 129.318 150.376C128.708 150.853 130.234 152.364 129.733 152.607C128.966 152.957 127.014 149.326 125.946 149.241C123.627 149.082 126.797 152.48 126.911 152.551C128.852 153.734 130.354 152.866 132.286 153.409C132.018 153.336 134.516 159.505 136.691 154.114C138.341 150.189 133.594 150.022 131.643 149.172Z" stroke="#B2B2B2" stroke-miterlimit="10"/>
<path d="M116.115 145.078C117.362 144.887 110.962 143.291 111.001 145.712C111.065 149.802 116.143 145.078 116.115 145.078Z" stroke="#B2B2B2" stroke-miterlimit="10"/>
<path d="M112.564 143.577C113.159 143.837 117.282 143.853 117.27 143.015C117.224 139.97 110.448 143.254 110.605 143.395C111.249 143.546 111.908 143.607 112.564 143.577Z" stroke="#B2B2B2" stroke-miterlimit="10"/>
<path d="M134.583 137.771C135.073 136.834 131.511 136.044 132.408 136.878C132.922 137.385 134.093 138.709 134.583 137.771Z" stroke="#B2B2B2" stroke-miterlimit="10"/>
<path d="M124.686 141.268C125.845 140.91 126.567 141.296 126.879 142.399C126.73 142.745 124.202 142.596 124.276 142.834C124.35 143.071 138.263 148.603 131.119 141.544C130.174 140.659 129.016 140.032 127.763 139.729C121.59 138.984 125.171 140.914 124.686 141.268Z" stroke="#B2B2B2" stroke-miterlimit="10"/>
<path d="M165.048 191.428C165.175 190.609 157.936 185.62 157.516 185.669C156.843 185.743 153.544 190.159 154.001 191.57C154.459 192.982 165.111 190.983 165.048 191.428Z" stroke="#B2B2B2" stroke-miterlimit="10"/>
<path d="M147.317 129.976C149.887 128.204 147.779 130.748 147.807 130.776C148.325 130.819 148.839 130.91 149.342 131.049C146.586 134.362 154.766 133.912 154.714 133.299C155.162 138.524 165.236 131.714 166.472 132.595C168.858 134.287 160.357 135.79 160.558 136.071C160.558 136.071 163.334 138.408 162.997 138.431C161.369 138.518 152.805 132.422 154.321 137.76C154.678 139.004 161.404 141.636 161.423 142.819C161.423 142.819 152.956 140.217 152.844 143.792C152.753 146.059 157.473 143.457 157.531 143.597C156.761 141.957 158.342 148.702 158.322 147.408C158.346 148.925 151.755 143.359 152.07 146.369C152.672 146.928 153.324 147.432 154.018 147.873C154.026 148.402 148.414 148.765 149.769 150.107C151.125 151.449 168.301 152.369 169.125 150.322C169.949 148.274 162.738 148.739 162.379 148.191C163.429 149.779 168.782 145.502 169.143 145.257C171.817 143.821 172.975 145.995 174.342 141.84C174.744 140.594 169.644 140.477 169.684 140.38C172.629 138.336 176.562 139.243 179.252 137.932C180.882 137.149 190.552 132.296 190.653 131.56C190.754 130.824 186.07 131.297 185.802 131.182C188.065 132.19 195.975 127.059 196.074 127.158C195.439 126.954 186.189 123.701 186.03 126.05C186.395 125.511 186.909 125.09 187.513 124.834C185.699 125.531 176.631 124.91 175.396 124.962C171.185 125.122 167.198 124.298 163.561 125.247C162.82 125.431 145.882 130.72 145.549 130.103C145.83 130.254 146.147 130.322 146.46 130.3C146.774 130.277 147.072 130.165 147.317 129.976Z" stroke="#B2B2B2" stroke-miterlimit="10"/>
<path d="M206.321 223.729C204.807 224.655 203.623 226.02 202.924 227.646C202.762 228.018 199.631 231.121 200.933 231.89C203.874 233.64 206.496 229.392 206.865 233.185C206.733 231.921 211.076 233.72 211.281 233.348C211.199 233.514 209.953 230.054 210.531 230.312C211.11 230.571 204.72 226.064 204.873 226.871C205.073 225.71 205.572 224.628 206.321 223.729Z" stroke="#B2B2B2" stroke-miterlimit="10"/>
<path d="M22.3678 216.764C23.2286 216.389 23.5707 215.923 23.2127 215.392C22.8547 214.86 21.7015 217.059 22.3678 216.764Z" stroke="#B2B2B2" stroke-miterlimit="10"/>
<path d="M28.4955 213.337C27.4922 212.932 26.4922 214.518 26.3513 214.488C25.8867 214.412 29.4567 213.74 28.4955 213.337Z" stroke="#B2B2B2" stroke-miterlimit="10"/>
<path d="M45.5408 204.915C43.9254 206.953 42.6332 210.891 46.097 207.427C46.6054 206.909 47.2932 202.713 45.5408 204.915Z" stroke="#B2B2B2" stroke-miterlimit="10"/>
<path d="M23.6137 199.598C22.919 199.184 22.4442 199.358 22.2174 200.121C22.4915 200.45 22.8518 200.699 23.2566 200.838C23.6615 200.977 24.0943 201 24.505 200.906C26.9213 200.05 23.5965 199.403 23.6137 199.598Z" stroke="#B2B2B2" stroke-miterlimit="10"/>
<path d="M304.284 250.104C304.144 249.213 302.522 250.341 302.891 250.611C303.6 251.135 304.439 250.995 304.284 250.104Z" stroke="#B2B2B2" stroke-miterlimit="10"/>
<path d="M341.267 259.363C341.259 258.788 336.574 259.299 336.673 259.3C336.094 259.18 341.429 260.835 341.267 259.363Z" stroke="#B2B2B2" stroke-miterlimit="10"/>
<path d="M353.569 260.096C353.931 259.58 354.322 259.085 354.738 258.611C353.46 258.857 352.226 259.269 351.066 259.837C350.439 261.024 353.722 260.891 353.569 260.096Z" stroke="#B2B2B2" stroke-miterlimit="10"/>
<path d="M273.037 191.166C278.187 190.964 273.219 183.168 270.798 184.551C270.241 184.863 266.62 186.8 266.013 186.596C265.916 186.358 265.757 186.15 265.551 185.992C265.346 185.835 265.103 185.734 264.848 185.702C261.704 189.399 264.957 184.619 260.532 184.553C259.605 184.54 261.03 185.855 260.777 185.823C259.891 185.713 258.524 185.414 258.34 187.081C258.253 187.804 262.014 187.692 261.886 187.551C261.757 187.41 261.543 188.938 261.653 188.814C261.763 188.69 258.635 188.895 258.854 189.427C258.955 189.609 261.527 189.717 261.985 190.252C262.814 191.197 261.133 192.341 260.947 192.143C264.133 195.544 269.725 191.312 273.037 191.166Z" stroke="#B2B2B2" stroke-miterlimit="10"/>
<path d="M283.113 223.939C287.309 224.001 288.505 220.972 288.034 217.751C287.876 216.641 290.167 216.495 287.572 215.086C286.422 215.113 285.29 215.335 284.227 215.742C284.179 218.013 284.399 216.008 281.973 217.302C281.905 217.411 282.065 223.923 283.113 223.939Z" stroke="#B2B2B2" stroke-miterlimit="10"/>
<path d="M296.054 203.066C296.451 202.63 296.899 200.952 296.289 201.123C295.68 201.294 295.876 203.257 296.054 203.066Z" stroke="#B2B2B2" stroke-miterlimit="10"/>
<path d="M287.793 207.025C287.48 206.688 286.266 208.581 286.741 208.574C287.217 208.568 288.12 207.376 287.793 207.025Z" stroke="#B2B2B2" stroke-miterlimit="10"/>
<path d="M287.467 209.282C289.009 207.921 287.647 214.5 287.634 213.656C287.615 212.48 289.696 214.267 289.473 214.306C289.92 213.964 290.237 213.483 290.373 212.935C291.101 213.057 289.942 215.696 289.973 215.918C290.115 216.985 292.755 215.308 292.857 215.573C294.607 218.545 291.526 219.704 291.683 221.685C291.248 221.776 290.854 221.993 290.549 222.308C290.243 222.623 290.041 223.023 289.966 223.458C291.286 223.792 292.631 224.001 293.983 224.084C294.06 224.57 288.423 225.663 289.849 227.538C289.848 227.469 300.119 225.447 300.723 224.833C301.328 224.22 299.659 224.61 299.708 224.168C299.941 222.11 301.576 223.103 300.66 220.834C299.873 220.466 299.177 219.926 298.625 219.255C297.436 217.3 296.239 213.118 293.436 213.285C293.436 213.285 295.19 210.336 294.987 209.876C294.174 207.872 292.716 210.12 291.578 208.775C291.193 208.313 293.847 206.594 293.053 205.849C292.417 205.314 287.591 209.187 287.467 209.282Z" stroke="#B2B2B2" stroke-miterlimit="10"/>
<path d="M317.208 216.085C316.898 215.997 321.275 214.967 319.168 213.536C317.357 212.318 317.039 216.041 317.208 216.085Z" stroke="#B2B2B2" stroke-miterlimit="10"/>
<path d="M328.855 208.888C327.933 208.875 327.49 210.832 327.788 211.155C328.086 211.478 329.762 208.874 328.855 208.888Z" stroke="#B2B2B2" stroke-miterlimit="10"/>
<path d="M334.006 208.406C334.646 208.147 335.214 207.747 335.671 207.236C336.829 205.989 332.241 208.519 334.006 208.406Z" stroke="#B2B2B2" stroke-miterlimit="10"/>
<path d="M335.347 206.175C335.537 205.774 333.939 205.932 334.309 206.285C334.383 206.356 334.47 206.409 334.566 206.442C334.662 206.475 334.763 206.487 334.862 206.476C334.962 206.466 335.057 206.433 335.141 206.381C335.225 206.329 335.295 206.259 335.347 206.175Z" stroke="#B2B2B2" stroke-miterlimit="10"/>
<path d="M327.479 138.773C328.904 139.965 331.529 138.663 333.247 139.72C333.163 139.719 329.847 140.9 329.861 140.942C330.71 143.089 342.682 142.172 341.801 138.866C341.696 138.459 333.984 137.289 334.292 137.181C334.053 137.389 333.897 137.674 333.848 137.988C333.799 138.303 333.86 138.627 334.023 138.908C333.396 139.36 330.263 136.803 329.574 136.877C329.154 137.272 328.809 137.739 328.554 138.258C328.128 137.945 327.715 137.618 327.302 137.291C325.881 137.298 327.28 138.616 327.479 138.773Z" stroke="#B2B2B2" stroke-miterlimit="10"/>
<path d="M317.458 141.771C315.02 141.179 318.809 145.546 319.404 145.888C320.538 146.545 321.393 143.832 322.174 143.523C322.955 143.215 321.861 145.021 322.646 144.921C323.178 144.606 323.755 144.371 324.361 144.223C325.094 145.319 319.273 147.333 320.09 147.54C321.57 147.923 323.128 147.014 324.664 147.399C323.133 147.689 321.64 148.133 320.207 148.723C320.075 150.112 322.813 150.153 323.448 150.371C323.384 150.538 323.278 150.686 323.14 150.801C323.002 150.915 322.837 150.993 322.658 151.027C322.301 151.522 324.706 151.794 325.081 151.577C325.992 150.367 326.821 149.097 327.562 147.775C327.837 147.418 330.08 141.944 331.562 144.218C331.159 143.614 332.228 149.04 331.707 148.921C332.313 149.069 337.845 150.069 337.58 147.52C337.713 148.829 331.8 143.262 331.898 143.264C330.063 141.763 327.35 141.486 326.067 141.161C326.814 141.353 324.821 138.737 323.89 138.417C322.479 137.965 324.261 143.193 324.352 142.777C325.503 137.44 320.571 141.567 320.613 141.553C320.143 141.064 319.628 140.618 319.076 140.223C319.516 139.992 319.984 139.817 320.471 139.702C320.139 140.016 311.215 140.246 317.458 141.771Z" stroke="#B2B2B2" stroke-miterlimit="10"/>
<path d="M315.934 144.946C316.287 145.281 316.677 145.575 317.095 145.822C316.564 145.814 315.932 143.034 314.902 143.365C314.85 143.702 314.926 144.051 315.117 144.343C315.308 144.635 315.599 144.85 315.934 144.946Z" stroke="#B2B2B2" stroke-miterlimit="10"/>
<path d="M608.266 197.363C607.525 197.307 606.8 197.542 606.249 198.018C606.579 198.414 611.296 199.57 611.28 198.509C610.437 197.782 609.366 197.375 608.266 197.363Z" stroke="#B2B2B2" stroke-miterlimit="10"/>
<path d="M528.914 245.181C528.65 243.58 525.155 250.345 526.948 249.386C526.642 249.548 528.432 248.395 528.338 248.657C528.023 248.208 527.693 247.773 527.35 247.337C527.356 247.726 537.731 247.797 537.098 243.317C537.417 245.738 528.394 241.605 529.448 240.926C529.63 240.873 528.868 244.958 528.914 245.181Z" stroke="#B2B2B2" stroke-miterlimit="10"/>
<path d="M509.825 266.744C510.358 267.776 510.781 265.373 511.08 266.568C511.083 266.748 510.456 270.41 511.655 270.164C512.616 269.971 514.393 266.493 512.802 265.832C512.478 265.661 508.482 264.12 509.825 266.744Z" stroke="#B2B2B2" stroke-miterlimit="10"/>
<path d="M515.586 266.386C515.911 264.852 518.081 266.714 518.042 264.288C518.022 262.999 515.454 264.25 515.373 264.47C515.05 265.242 515.26 267.905 515.586 266.386Z" stroke="#B2B2B2" stroke-miterlimit="10"/>
<path d="M519.12 261.244C519.12 261.244 511.205 261.474 511.866 264.232C511.956 264.594 518.529 263.72 519.004 263.616C517.524 263.941 520.423 264.679 520.773 264.656C521.893 264.59 521.013 263.049 521.222 262.914C522.457 262.183 526.279 263.683 527.555 261.939C528.542 260.566 530.704 251.159 528.893 250.105C526.615 248.794 525.623 255.969 524.581 257.411C523.772 258.551 519.306 258.804 519.12 261.244Z" stroke="#B2B2B2" stroke-miterlimit="10"/>
<path d="M478.236 292.852C478.562 292.186 478.836 291.495 479.057 290.785C478.864 290.061 474.853 290.542 475.649 292.121C475.749 292.289 478.069 295.484 478.236 292.852Z" stroke="#B2B2B2" stroke-miterlimit="10"/>
<path d="M495.195 286.791C495.967 286.221 497.76 282.28 497.119 281.373C495.009 278.343 493.446 288.12 495.195 286.791Z" stroke="#B2B2B2" stroke-miterlimit="10"/>
<path d="M493.831 297.532C492.785 301.141 504.661 306.158 502.261 308.89C506.115 304.491 497.666 302.555 496.768 300.508C495.87 298.461 499.72 295.598 496.662 293.81C494.604 292.562 493.87 297.38 493.831 297.532Z" stroke="#B2B2B2" stroke-miterlimit="10"/>
<path d="M491.828 308.821C490.982 309.644 490.301 310.619 489.819 311.698C489.618 311.308 493.963 308.644 493.097 306.915C492.757 307.119 492.467 307.395 492.248 307.724C492.029 308.052 491.885 308.427 491.828 308.821Z" stroke="#B2B2B2" stroke-miterlimit="10"/>
<path d="M494.783 302.851C494.935 303.573 495.295 305.089 496.352 304.744C497.41 304.4 494.677 302.323 494.783 302.851Z" stroke="#B2B2B2" stroke-miterlimit="10"/>
<path d="M501.662 309.139C501.275 308.606 500.338 309.563 500.484 309.954C500.631 310.345 502.063 309.672 501.662 309.139Z" stroke="#B2B2B2" stroke-miterlimit="10"/>
<path d="M503.258 310.014C503.258 310.014 496.325 314.405 497.514 314.312C498.703 314.219 499.153 312.589 500.371 313.453C501.59 314.317 500.905 317.012 503.23 317.047C501.507 317.021 505.007 313.411 504.863 314.047C505.03 313.305 504.966 312.524 504.68 311.805C504.393 311.086 503.898 310.462 503.258 310.014Z" stroke="#B2B2B2" stroke-miterlimit="10"/>
<path d="M497.423 305.498C497.13 305.828 496.98 306.262 497.005 306.708C497.031 307.155 497.229 307.579 497.559 307.894C500.551 307.287 496.534 310.161 498.845 310.68C500.864 311.221 500.903 304.802 497.423 305.498Z" stroke="#B2B2B2" stroke-miterlimit="10"/>
<path d="M546.674 335.796C546.707 337.871 541.306 336.497 541.259 337.109C541.011 340.112 549.522 337.327 547.731 335.102C547.139 334.954 546.791 335.171 546.674 335.796Z" stroke="#B2B2B2" stroke-miterlimit="10"/>
<path d="M548.869 335.63C550.261 335.249 547.729 333.398 547.434 333.324C547.855 333.427 548.438 335.762 548.869 335.63Z" stroke="#B2B2B2" stroke-miterlimit="10"/>
<path d="M539.548 339.195C540.856 339.298 535.264 334.653 534.059 333.925C531.226 332.312 525.752 329.782 522.946 329.908C522.131 329.896 521.033 332.398 520.034 332.202C518.02 331.811 519.138 329.713 517.696 329.107C516.466 328.588 516.445 327.224 514.245 327.526C513.866 327.52 511.8 329.187 512.547 329.351C512.956 329.455 517.234 331.855 517.251 331.132C517.256 331.466 514.643 331.399 514.447 331.438C513.271 331.643 518.904 334.439 519.257 334.611C521.748 335.844 523.485 335.606 524.999 338.118C526.513 340.631 523.042 340.44 523.65 341.576C524.722 343.651 532.487 341.943 533.316 341.969C535.591 342.003 535.548 341.933 538.408 343.436C538.408 343.436 545.485 347.032 544.679 345.782C544.319 345.206 538.129 339.091 539.548 339.195Z" stroke="#B2B2B2" stroke-miterlimit="10"/>
<path d="M430.556 308.682C429.527 308.792 429.592 314.791 430.798 315.292C434.178 316.681 433.242 308.403 430.556 308.682Z" stroke="#B2B2B2" stroke-miterlimit="10"/>
<path d="M379.395 346.236C379.395 346.236 377.211 350.073 376.84 350.455C375.853 351.449 373.201 352.033 372.406 352.934C370.244 355.431 371.752 356.586 371.419 360.298C371.18 362.906 368.236 373.462 375.317 370.123C379.467 368.193 378.382 356.515 379.856 352.695C380.057 352.201 381.183 353.847 381.137 351.732C381.09 349.618 379.883 348.08 379.395 346.236Z" stroke="#B2B2B2" stroke-miterlimit="10"/>
<path d="M386.11 303.168C386.668 303.789 387.711 303.094 387.763 302.858C387.816 302.622 385.495 302.476 386.11 303.168Z" stroke="#B2B2B2" stroke-miterlimit="10"/>
<path d="M560.09 344.125C560.257 344.919 561.344 345.408 561.774 345.136C562.204 344.865 559.937 343.318 560.09 344.125Z" stroke="#B2B2B2" stroke-miterlimit="10"/>
<path d="M554.874 339.298C554.878 339.492 556.017 340.702 556.295 340.539C556.572 340.377 554.939 338.952 554.874 339.298Z" stroke="#B2B2B2" stroke-miterlimit="10"/>
<path d="M560.363 342.484C560.752 342.212 558.103 340.616 558.068 341.06C558.033 341.505 559.975 342.756 560.363 342.484Z" stroke="#B2B2B2" stroke-miterlimit="10"/>
<path d="M551.755 337.08C551.664 337.549 553.2 340.051 553.81 339.673C554.847 338.954 551.845 336.624 551.755 337.08Z" stroke="#B2B2B2" stroke-miterlimit="10"/>
<path d="M561.782 342.399C561.446 343.251 562.893 344.766 563.117 344.797C563.34 344.828 562.051 341.753 561.782 342.399Z" stroke="#B2B2B2" stroke-miterlimit="10"/>
<path d="M563.093 345.866C563.096 346.061 564.121 347.021 564.593 346.68C565.065 346.34 562.961 345.53 563.093 345.866Z" stroke="#B2B2B2" stroke-miterlimit="10"/>
<path d="M511.185 347.778C511.556 348.09 513.363 347.726 513.286 347.25C513.208 346.775 510.63 347.296 511.185 347.778Z" stroke="#B2B2B2" stroke-miterlimit="10"/>
<path d="M549.819 378.193C549.748 378.191 548.867 373.014 549.319 373.229C546.226 371.795 541.652 365.355 539.327 361.975C537.618 359.409 537.07 356.722 535.675 353.592C534.962 351.943 533.565 353.144 533.058 352.081C532.318 350.516 532.981 347.277 531.402 345.838C530.221 344.737 529.746 353.573 529.732 353.6C528.166 358.172 529.134 358.27 524.947 356.736C523.735 356.301 520.102 354.415 519.741 352.827C519.453 351.504 522.572 349.315 522.138 348.476C522.456 349.105 514.532 346.142 514.365 346.209C514.177 346.719 514.379 347.111 515 347.398C512.787 344.852 509.37 353.769 510.433 353.632C510.937 353.57 507.213 353.015 508.246 353.6C505.544 352.032 505.926 350.497 502.766 352.727C500.715 354.181 501.419 356.177 500.277 357.493C499.96 357.835 499.702 355.679 499.216 356.005C497.51 357.118 498.88 358.624 497.33 359.864C495.82 360.974 494.148 361.856 492.368 362.483C489.587 363.83 487.658 364.176 485.283 366.389C485.161 366.234 485.079 366.052 485.045 365.86C485.01 365.668 485.023 365.472 485.083 365.29C485.092 365.859 484.434 367.626 484.379 368.569C484.324 369.512 485.364 373.193 485.106 373.744C484.68 373.565 484.331 373.238 484.124 372.827C484.329 373.234 484.49 373.66 484.607 374.098L483.443 373.136C482.998 374.268 486.558 380.359 486.916 381.711C487.095 382.422 487.158 388.947 486.854 388.332C489.155 392.878 492.301 389.801 495.958 388.828C498.944 387.998 500.868 387.389 503.767 386.363C505.997 385.549 510.737 383.954 513.168 384.379C514.686 384.652 522.294 390.581 520.596 391.319C521.111 391.105 524.134 387.347 524.333 387.53C525.301 388.433 522.802 390.811 522.699 391.379C522.271 393.552 525.195 389.694 524.406 390.307C525.486 389.477 525.023 392.982 524.921 392.703C524.818 392.423 528.556 397.407 528.897 397.704C530.986 399.484 536.091 397.936 536.034 397.893C536.125 398.288 536.131 398.695 536.053 399.087C535.582 398.511 537.775 399.835 538.302 400.329C537.234 399.313 544.293 397.225 544.086 397.444C545.161 396.266 545.702 390.68 546.514 388.888C547.207 387.524 549.211 378.753 549.819 378.193Z" stroke="#B2B2B2" stroke-miterlimit="10"/>
<path d="M522 393.265C522.414 393.662 523.748 393.569 523.951 393.014C524.153 392.46 521.644 392.911 522 393.265Z" stroke="#B2B2B2" stroke-miterlimit="10"/>
<path d="M538.548 404.213C537.582 404.016 536.638 403.713 535.733 403.312C536.221 403.166 535.935 410.693 540.019 408.632C542.033 407.594 542.756 403.763 538.548 404.213Z" stroke="#B2B2B2" stroke-miterlimit="10"/>
<path d="M573.875 417.65C574.129 417.737 574.951 417.514 574.479 416.883C574.007 416.252 573.27 417.461 573.875 417.65Z" stroke="#B2B2B2" stroke-miterlimit="10"/>
<path d="M590.08 398.299C589.144 400.028 586.969 395.627 586.774 395.638C586.683 395.781 586.636 395.948 586.639 396.12C586.642 396.291 586.694 396.46 586.789 396.606C586.953 396.36 583.52 391.802 582.837 391.792C582.753 391.791 585.312 396.695 585.546 397.362C586.319 399.531 583.862 399.412 583.978 400.603C583.977 400.506 585.829 405.705 585.743 405.537C587.811 409.329 591.948 394.662 590.08 398.299Z" stroke="#B2B2B2" stroke-miterlimit="10"/>
<path d="M584.143 404.369C582.102 402.773 570.108 413.352 573.816 415.861C577.523 418.37 585.887 405.754 584.143 404.369Z" stroke="#B2B2B2" stroke-miterlimit="10"/>
<path d="M591.766 358.149C592.161 358.307 593.458 357.854 593.448 357.187C593.437 356.52 591.159 357.903 591.766 358.149Z" stroke="#B2B2B2" stroke-miterlimit="10"/>
<path d="M589.543 360.167C590.156 360.801 591.389 360.791 591.399 359.653C591.409 358.514 588.987 359.603 589.543 360.167Z" stroke="#B2B2B2" stroke-miterlimit="10"/>
<path d="M376.374 137.74C375.766 137.861 375.225 138.188 374.843 138.665C375.54 140.138 381.75 137.288 381.772 136.857C381.84 134.921 376.717 137.187 376.374 137.74Z" stroke="#B2B2B2" stroke-miterlimit="10"/>
<path d="M385.426 138.676C385.414 137.839 382.911 138.723 383.406 138.911C383.901 139.1 385.439 139.512 385.426 138.676Z" stroke="#B2B2B2" stroke-miterlimit="10"/>
<path d="M374.032 137.349C374.911 136.966 375.869 136.779 376.839 136.802C377.136 135.953 371.207 136.723 371.44 137.201C371.599 137.389 371.796 137.542 372.016 137.652C372.236 137.762 372.476 137.826 372.72 137.84C372.963 137.854 373.206 137.817 373.432 137.733C373.658 137.649 373.862 137.518 374.032 137.349Z" stroke="#B2B2B2" stroke-miterlimit="10"/>
<path d="M376.983 178.634C378.41 180.046 379.234 178.027 379.959 177.746C380.95 177.371 374.359 176.008 376.983 178.634Z" stroke="#B2B2B2" stroke-miterlimit="10"/>
<path d="M387.284 163.109C385.357 164.979 383.558 166.975 381.898 169.083C381.9 169.235 384.742 171.583 384.548 171.705C384.287 171.201 384.379 170.841 384.797 170.625C384.529 170.552 391.904 176.702 392.115 173.262C392.184 172.346 388.885 170.311 388.739 169.046C388.592 167.78 389.973 166.44 390.501 165.267C391.365 163.715 392.441 162.292 393.7 161.038C395.814 159.112 411.22 152.898 410.523 152.305C408.86 150.891 395.148 155.158 392.856 156.513C391.606 157.258 387.326 163.123 387.284 163.109Z" stroke="#B2B2B2" stroke-miterlimit="10"/>
<path d="M540.136 161.634C540.812 161.821 541.519 161.846 542.197 161.707C542.875 161.569 543.506 161.271 544.036 160.837C544.319 157.225 528.287 160.614 540.136 161.634Z" stroke="#B2B2B2" stroke-miterlimit="10"/>
<path d="M527.736 163.278C527.723 162.499 525.115 163.531 526.216 163.937C526.795 164.154 527.748 164.071 527.736 163.278Z" stroke="#B2B2B2" stroke-miterlimit="10"/>
<path d="M458.886 148.669C459.851 149.281 468.49 147.977 468.758 146.298C469.026 144.62 463.712 144.054 463.901 145.378C462.757 137.838 460.134 149.452 458.886 148.669Z" stroke="#B2B2B2" stroke-miterlimit="10"/>
<path d="M451.258 141.235C450.787 141.669 450.418 142.199 450.173 142.792C452.64 145.138 458.581 146.992 459.022 142.922C459.403 139.477 451.244 140.331 451.258 141.235Z" stroke="#B2B2B2" stroke-miterlimit="10"/>
<path d="M448.704 139.805C450.275 140.551 447.312 140.591 447.145 140.672C446.309 141.077 450.28 140.913 450.992 140.645C451.704 140.377 456.932 138.91 455.958 137.699C451.95 132.854 447.926 139.445 448.704 139.805Z" stroke="#B2B2B2" stroke-miterlimit="10"/>
<path d="M479.921 161.794C478.852 164.194 481.882 162.545 481.904 162.143C481.806 161.976 481.672 161.832 481.513 161.722C481.353 161.611 481.172 161.536 480.982 161.503C480.792 161.469 480.598 161.478 480.415 161.529C480.231 161.579 480.063 161.669 479.921 161.794Z" stroke="#B2B2B2" stroke-miterlimit="10"/>
<path d="M386.499 136.77C387.3 137.632 391.998 137.797 392.115 136.28C392.177 135.765 388.187 135.01 387.949 135.049C388.734 134.949 386.97 137.237 386.499 136.77Z" stroke="#B2B2B2" stroke-miterlimit="10"/>
<path d="M447.353 136.112C447.538 135.334 444.338 135.622 445.194 136.401C445.493 136.67 447.239 136.904 447.353 136.112Z" stroke="#B2B2B2" stroke-miterlimit="10"/>
<path d="M592.717 175.184C592.931 175.355 597.19 175.122 596.331 174.119C594.311 171.731 590.084 175.035 590.396 175.207C591.169 175.176 591.943 175.173 592.717 175.184Z" stroke="#B2B2B2" stroke-miterlimit="10"/>
<path d="M521.493 160.004C523.072 161.006 524.951 161.405 526.771 161.126C528.02 160.906 531.353 159.014 530.065 158.535C530.688 158.767 532.507 162.757 533.502 159.715C534.321 157.145 531.882 157.724 529.648 156.966C529.451 156.963 525.424 156.752 525.424 156.752C526.084 156.636 517.747 157.927 521.493 160.004Z" stroke="#B2B2B2" stroke-miterlimit="10"/>
<path d="M531.652 166.751C534.202 166.174 524.985 163.001 526.828 165.844C527.405 166.759 530.811 166.948 531.652 166.751Z" stroke="#B2B2B2" stroke-miterlimit="10"/>
<path d="M343.729 200.929C340.963 201.638 336.181 203.415 333.63 200.876C332.989 200.241 332.402 195.134 333.069 193.852C333.355 193.328 344.355 183.031 335.325 185.856C333.4 186.466 331.77 190.693 330.754 192.067C329.491 193.785 327.532 194.048 326.954 196.526C325.93 200.859 329.288 199.506 329.335 202.465C329.386 204.73 325.846 207.012 325.571 209.981C325.94 210.292 326.233 210.157 326.448 209.577C325.889 209.721 322.463 214.741 320.77 214.091C320.417 213.96 316.663 202.86 316.219 203.132C315.439 203.523 314.785 205.597 313.457 205.869C314.422 205.675 306.208 207.748 308.056 204.927C308.193 204.707 309.307 204.196 309.117 203.693C308.824 202.924 307.346 204.347 307.335 203.666C307.372 203.1 307.456 202.539 307.589 201.989C307.464 202.085 310.256 203.029 309.679 201.117C309.472 200.475 307.051 201.676 307.609 197.975C307.532 198.446 310.156 192.345 311.273 194.709C311.085 194.659 310.91 194.568 310.76 194.443C310.61 194.318 310.489 194.163 310.406 193.988C311.378 192.516 312.399 194.073 312.564 192.089C312.703 191.174 313.849 192.677 313.974 192.582C315.622 191.245 315.624 190.481 317.617 189.733C318.161 189.505 316.445 188.34 316.737 188.205C320.234 186.729 321.258 180.59 325.007 179.132C325.036 179.132 325.21 177.745 325.21 177.745C323.857 176.489 321.032 179.628 319.783 179.54C320.134 179.559 324.554 175.36 324.554 175.36C324.408 175.844 324.289 176.329 324.185 176.813C324.183 176.688 326.989 176.73 326.989 176.73C327.206 175.4 325.632 176.085 325.57 175.709C325.508 175.333 328.82 172.853 328.946 172.855C330.604 172.158 330.372 173.418 331.591 174.214C332.271 174.655 331.647 172.451 331.563 172.45C332.231 172.825 332.956 173.085 333.707 173.218C333.316 173.014 332.993 172.699 332.781 172.315C333.392 172.243 334.014 172.275 334.62 172.412C334.514 171.95 334.272 171.526 333.927 171.193C333.875 170.609 336.331 170.701 336.242 170.366C336.034 169.668 334.133 173.585 335.683 173.136C334.496 173.48 338.489 170.58 337.701 171.249C337.701 171.249 340.222 168.411 340.484 169.901C340.485 169.985 338.062 172.824 338.901 172.656L341.176 170.217C341.579 169.959 341.218 171.913 341.456 171.916C342.087 171.925 343.017 167.813 344.231 170.054C344.289 170.152 343.433 171.904 344.009 171.912C343.293 171.874 349.054 169.042 348.489 172.312C348.425 172.686 345.603 173.409 345.499 173.018C346.078 175.055 347.859 173.234 348.615 174.065C348.928 174.347 351.671 173.082 351.846 174.391C351.495 174.634 351.08 174.772 350.646 174.789C351.595 173.623 362.936 178.515 364.032 180.42C369.731 190.341 351.47 181.539 350.245 182.132C351.998 181.283 356.527 190.867 357.337 191.504C360.604 194.067 359.92 189.042 358.085 190.056C357.286 189.211 357.444 188.547 358.558 188.049L360.429 189.272C360.9 188.917 363.96 190.797 364.071 189.881C364.742 184.473 364.794 187.739 368.562 184.766C368.77 184.617 372.617 184.896 369.269 182.499C370.617 183.463 368.789 177.907 368.864 178.2C368.636 177.155 375.679 179.051 374.303 180.684C373.945 181.123 369.328 180.944 372.419 183.032C375.51 185.12 375.11 182.044 376.754 181.346C377.994 180.85 386.521 178.198 386.511 177.545C386.612 178.575 385.72 178.951 385.222 179.36C384.723 179.769 391.271 178.769 391.271 178.769C395.376 178.469 393.527 178.608 395.32 179.357C399.894 181.245 395.059 172.685 394.239 173.145C397.325 171.413 407.722 180.486 410.24 180.093C413.836 179.563 407.573 175.539 407.573 175.539C407.836 176.237 407.963 170.988 407.896 172.07C408.127 168.114 413.75 161.863 417.248 167.472C417.218 167.402 417.008 174.415 417.145 175.083C417.617 177.41 418.667 179.051 418.096 181.071C417.18 184.281 411.439 184.918 411.437 184.765C411.062 185.871 415.414 186.158 415.904 186.054C417.665 185.691 419.353 183.396 420.604 181.817C421.663 180.457 418.873 178.777 421.769 178.334C423.811 178.003 423.327 179.315 424.881 180.005C422.607 179.013 427.894 185.079 427.083 182.594C425.562 177.834 421.281 179.41 418.917 176.263C418.029 175.097 419.127 164.847 421.285 165.601C423.443 166.356 420.745 169.566 421.773 170.707C421.845 170.777 426.94 171.909 426.94 171.909C427.311 171.47 422.488 169.801 422.991 168.794C423.63 167.539 425.054 168.894 425.976 168.644C426.437 168.526 424.309 167.035 424.461 166.899C426.173 165.174 432.345 170.489 433.251 169.238C435.543 166.105 423.437 165.119 435.489 162.77C436.356 162.602 439.377 162.911 439.888 162.432C440.745 161.653 438.805 160.485 438.805 160.485C439.213 160.503 439.621 160.486 440.024 160.434C440.008 160.267 438.241 159.435 438.393 159.257L439.797 159.361C440.566 158.317 439.627 158.386 441.451 157.566C442.008 157.31 449.752 154.799 449.831 155.37C449.626 155.318 449.433 155.226 449.262 155.099C449.091 154.972 448.947 154.814 448.838 154.633C450.544 154.184 452.289 153.876 454.054 153.71C453.905 154.042 453.756 154.373 453.621 154.704C453.861 154.791 458.53 153.833 458.371 154.386C457.988 154.118 457.631 153.815 457.305 153.481C457.469 155.901 461.315 150.804 460.497 151.389C462.106 150.246 466.48 146.616 468.448 149.548C469.036 150.377 466.49 150.77 466.127 150.903C466.657 150.716 470.884 151.905 470.878 151.571C470.425 152.064 470.038 152.614 469.727 153.207C472.712 153.988 475.212 151.524 478.604 153.145C481.261 154.421 480.492 155.479 480.793 156.734C481.842 160.945 469.935 161.837 468.414 165.857C468.562 165.457 475.908 164.399 475.812 163.633C475.474 163.545 475.15 163.457 474.825 163.341C474.296 162.68 480.103 162.697 480.525 162.773C481.397 162.938 480.728 164.985 481.317 164.993C483.545 164.818 486.31 163.192 489.888 164.176C490.339 164.294 489.295 164.82 489.428 165.253C489.665 166.048 496.558 166.442 497.271 166.328C497.761 166.252 497.94 163.421 499.339 163.164C501.156 162.802 509.837 168.029 507.404 169.382C506.8 169.406 506.195 169.278 505.645 169.009C506.626 168.954 508.186 173.547 510.11 173.687C511.416 173.79 512.353 170.109 512.93 170.256C513.508 170.404 522.147 172.144 522.147 172.144C521.798 171.998 521.48 171.785 521.211 171.518C521.711 171.178 524.82 171.78 524.817 171.572C524.933 172.699 523.835 168.946 524.712 169.431C524.515 169.53 524.294 169.581 524.07 169.577C523.845 169.574 523.623 169.517 523.422 169.412C522.046 167.558 535.656 166.162 535.236 168.851C535.173 169.323 532.143 168.402 532.69 169.286C533.327 169.427 533.947 169.642 534.538 169.924C534.136 170.224 533.706 170.509 533.275 170.767C533.327 170.504 539.607 167.652 541.191 170.246C541.911 171.423 539.26 170.536 539.51 171.235C540.348 173.637 548.258 173.629 549.887 173.778C555.183 174.316 554.811 174.699 557.655 177.131C557.626 177.103 560.897 179.93 560.215 180.253C561.008 179.862 559.942 178.123 561.909 178.333C563.414 178.57 564.929 178.713 566.446 178.762C567.356 178.636 573.586 177.076 573.451 178.255C573.292 179.725 572.313 178.168 571.603 178.491C570.893 178.814 574.066 181.612 574.718 181.219C576.135 180.365 575.062 178.14 574.908 178.138C576.663 177.372 581.599 177.334 584.513 178.002C589.735 179.191 599.101 184.262 600.576 188.785C600.842 189.637 600.125 185.153 600.04 186.846C600.114 185.319 607.591 189.834 607.591 189.834C608.452 190.167 604.699 191.403 605.241 191.078C605.102 191.159 606.178 191.8 605.715 191.793L603.885 191.349C604.183 191.59 602.733 193.874 602.577 193.775C602.911 194.021 603.165 194.359 603.308 194.744C601.54 196.44 591.977 189.561 593.117 188.952C591.1 190.02 592.69 191.197 591.55 191.846C590.758 192.307 585.293 194.365 584.939 193.248C585.869 196.138 592.22 195.996 588.185 199.798C587.688 200.277 581.595 201.687 580.011 202.58C578.426 203.474 576.546 206.03 575.148 206.37C575.372 206.304 567.659 203.73 568.361 206.422C568.438 206.159 568.445 205.879 568.381 205.608C568.318 205.337 568.187 205.085 568 204.874C566.47 205.48 565.031 206.281 563.718 207.256C560.938 210.576 562.939 210.259 563.585 212.088C563.333 211.265 562.652 216.895 563.646 215.91C563.563 215.992 552.863 228.336 553.177 228.688C551.15 226.449 550.766 218.26 551.566 215.66C552.819 211.581 554.312 211.964 557.301 209.425C559.598 207.458 566.353 201.905 566.567 199.477C566.681 197.812 558.699 204.778 558.366 204.078C558.452 204.232 558.257 200.77 558.639 201.026C555.718 199.01 547.861 204.978 550.245 207.611C550.574 207.991 543.211 208.882 543.834 208.377C544.25 208.328 544.651 208.207 545.021 208.02C545.375 207.414 534.611 206.99 533.408 207.152C528.565 207.761 526.795 210.249 523.285 213.49C522.179 214.515 517.96 217.3 517.758 218.686C517.897 217.744 521.998 220.764 520.489 221.089C520.363 221.115 521.744 219.76 521.746 219.885C521.748 220.01 521.498 221.951 521.779 221.955C524.189 221.838 524.608 218.177 527.211 222.217C528.548 224.279 527.065 227.118 526.513 229.472C525.632 233.655 523.746 237.537 521.014 240.796C519.722 242.416 518.15 244.99 515.962 245.888C513.775 246.787 513.458 244.504 511.477 246.044C509.811 247.549 508.439 249.345 507.424 251.346C505.886 255.185 506.282 250.982 506.982 255.271C507.365 257.305 510.201 259.25 508.834 261.494C508.697 261.687 504.23 263.885 503.871 263.338C503.022 262.005 504.659 259.126 504.365 258.247C504.01 257.13 502.082 256.699 502.082 256.699C502.487 257.483 499.792 252.983 501.748 254.249C497.525 251.518 500.357 254.936 495.161 254.567C494.783 254.562 496.57 250.56 496.399 250.418C495.674 249.796 489.138 254.144 489.147 254.728C490.224 255.828 491.36 256.87 492.549 257.849C490.527 256.846 499.775 256.289 497.253 258.21C495.631 259.395 492.406 259.444 492.056 262.12C491.975 262.314 496.531 268.313 496.283 268.587C496.725 268.135 493.922 268.288 493.922 268.288C497.219 268.337 495.473 272.285 494.678 271.717C495.09 272.015 496.434 271.896 496.885 272.042C496.421 271.951 492.577 280.646 491.724 281.689C490.349 283.405 476.875 289.846 477.175 290.156C475.634 288.563 476.799 286.858 473.399 288.196C468.505 290.027 471.443 293.988 472.891 296.788C475.868 302.292 477.796 303.557 472.849 308.221C472.669 308.385 469.423 311.476 469.125 311.277C469.296 311.432 466.846 307.298 466.632 307.072C466.046 306.425 462.867 302.293 461.471 302.731C456.783 304.245 462.141 313.035 463.387 314.651C464.375 315.916 470.246 323.519 468.159 324.558C465.237 326.001 459.022 313.586 458.531 311.828C457.683 308.787 458.517 304.798 457.648 301.368C454.985 290.923 455.967 300.593 452.286 297.537C450.481 296.08 450.828 287.055 447.502 285.213C446.017 284.399 440.017 289.853 439.106 290.757C434.052 295.724 431.814 296.983 430.645 303.689C426.442 327.702 419.249 286.585 417.906 285.899C419.419 286.644 411.177 291.342 412.289 285.496C413.111 285.471 413.897 285.191 414.535 284.696C414.558 286.168 408.834 280.79 409.188 280.962C406.897 279.775 406.084 279.847 403.249 279.721C400.414 279.596 397.475 279.996 394.655 279.065C393.654 278.731 392.69 277.216 392.438 277.213C391.733 277.021 389.407 277.126 388.926 276.896C386.553 275.819 379.607 269.451 378.466 270.045C376.575 271.045 380.384 278.617 381.804 279.722C381.819 279.736 382.292 277.77 382.969 277.989C384.477 278.456 382.015 281.517 384.53 281.777C387.635 282.115 389.524 277.447 391.097 277.609C390.311 277.528 396.555 284.748 396.752 285.681C396.95 286.615 392.985 291.266 392.64 291.636C389.301 295.073 383.553 297.877 378.579 299.956C375.807 301.124 371.869 303.066 369.985 301.037C368.587 299.544 368.728 295.198 367.771 293.225C365.725 288.943 363.086 285.306 361.014 281.191C360.277 279.791 356.745 272.056 355.626 271.386C355.457 272.268 355.134 273.109 354.67 273.873C353.548 273.856 352.308 269.086 351.889 269.233C352.126 269.153 359.738 289.104 360.28 290.502C361.511 293.826 364.369 296.286 366.428 298.748C367.738 300.7 368.856 302.769 369.767 304.924C374.216 307.768 378.408 302.399 382.302 303.846C387.932 305.986 370.22 324.518 368.731 326.122C365.146 329.986 362.485 333.739 363.58 339.02C364.599 343.981 368.065 349.395 364.874 354.196C363.397 356.522 359.278 356.85 357.833 359.426C356.047 362.636 358.165 362.654 357.728 366.023C357.102 370.751 355.513 368.741 353.074 372.344C352.821 374.248 352.41 376.124 351.846 377.952C348.31 384.901 344.235 387.05 337.136 387.805C329.772 388.599 331.741 387.211 329.308 380.66C327.52 375.826 325.913 372.718 324.752 367.644C324.118 364.815 320.13 358.393 320.354 355.687C320.458 351.66 323.129 348.532 323.575 344.858C323.997 341.446 321.672 335.508 319.885 332.494C317.681 328.85 316.339 328.26 316.211 324.66C316.19 324.201 317.169 321.396 316.818 320.501C314.958 316.473 316.35 318.397 312.807 316.149C312.184 315.751 311.36 316.864 310.597 316.519C309.834 316.174 310.036 314.774 309.457 314.488C308.164 313.867 306.904 313.18 305.679 312.431C305.207 311.841 300.813 314.234 300.394 314.339C297.075 315.354 293.582 315.773 290.077 315.575C283.46 314.852 279.296 309.663 275.77 304.054C274.201 301.586 272.765 300.314 272.617 297.214C272.473 294.378 273.336 291.334 273.403 288.474C273.48 285.391 272.629 284.822 273.976 281.314C275.187 278.249 276.931 275.432 279.13 272.986C279.93 272.15 281.373 272.033 282.071 270.973C283.139 269.35 282.933 267.86 283.588 266.731C284.407 265.285 285.11 263.628 285.999 262.252C285.274 263.408 291.22 258.051 289.314 259.023C291.122 258.091 290.308 258.94 292.362 258.429C294.779 257.84 296.914 258.08 299.498 257.382C301.975 256.525 304.533 255.899 307.14 255.509C309.268 255.304 316.71 254.054 317.828 255.598C319.664 258.099 315.684 260.095 318.094 262.548C320.503 265.002 329.727 268.237 331.846 267.421C331.972 267.367 331.597 265 332.78 264.392C336.327 262.583 334.945 264.758 337.673 265.16C339.347 265.462 340.692 266.274 342.38 266.619C348.698 267.88 353.613 269.161 356.03 263.279L356.849 263.666M343.729 200.929C343.941 200.549 344.194 200.194 344.483 199.87C344.198 200.198 343.945 200.552 343.729 200.929ZM343.729 200.929C344.864 201.074 345.95 201.512 346.877 202.198C347.492 202.93 339.131 203.708 339.492 203.478C334.146 205.954 339.349 205.934 338.013 207.443C336.44 209.962 336.086 208.025 335.422 208.557C335.2 208.735 331.221 208.981 332.741 211.949C334.195 215.179 331.402 215.916 329.603 216.542C329.757 216.544 324.924 216.931 323.762 217.066C321.242 217.335 322.58 217.702 321.318 215.947C320.787 215.202 317.871 217.91 317.318 217.499C317.206 217.105 317.2 216.693 317.299 216.304C316.608 216.113 314.493 216.262 314.674 214.445C314.669 214.111 316.541 215.431 316.669 214.627C316.925 213.103 315.79 214.086 315.331 213.399C315.115 213.062 317.259 209.412 316.088 208.145C315.303 207.286 314.058 210.143 314.058 210.143C313.244 210.95 312.407 209.465 312.349 212.896C312.367 213.994 314.525 216.526 314.009 217.588C313.601 218.402 308.986 219.181 308.139 219.724C306.602 221.025 305.171 222.444 303.859 223.967C302.983 225.011 302.007 225.968 300.945 226.827C299.65 227.405 296.909 227.017 296.478 227.247C295.546 227.775 297.393 229.247 296.521 229.942C295.648 230.638 293.102 228.377 292.53 229.466C290.978 232.388 293.341 230.187 294.78 232.445C296.765 235.545 299.839 239.244 295.372 241.442C293.299 242.467 288.135 239.667 286.452 240.559C283.281 242.235 285.776 242.119 285.121 245.054C283.814 251.022 284.009 253.54 289 255.212C290.83 255.876 292.814 255.914 294.628 255.318C296.443 254.721 297.98 253.527 298.99 251.929C301.242 248.906 302.532 243.646 306.004 241.517C305.213 242.005 313.313 240.722 312.653 240.685C316.135 240.903 313.953 240.385 316.963 242.721C316.864 242.651 328.62 253.328 325.323 253.279C327.189 253.306 326.469 248.656 326.65 248.547C327.025 248.489 327.411 248.524 327.775 248.648C328.139 248.772 328.469 248.982 328.737 249.259C327.497 248.879 315.785 236.564 321.4 236.842C322.171 236.853 328.312 243.724 330.237 244.836M330.237 244.836C330.262 244.684 330.302 244.536 330.356 244.393M330.237 244.836C328.34 243.71 335.44 255.36 335.397 252.664C335.359 250.288 332.377 258.51 336.424 256.333C336.428 255.728 336.319 255.123 336.101 254.55C336.474 254.66 336.867 254.666 337.237 254.567C337.814 253.84 335.992 253.91 336.351 253.54C336.71 253.17 338.691 254.283 338.4 252.737C338.033 250.856 336.997 252.716 336.326 251.956C336.554 252.209 335.972 248.228 335.651 248.362C336.295 248.558 336.955 248.693 337.621 248.766C338.694 248.31 344.488 248.437 345.869 247.069C345.51 247.425 343.505 243.963 343.621 243.298C344.361 241.763 345.28 240.323 346.357 239.005C347.002 238.084 347.276 235.934 348.641 235.329C349.504 234.939 353.378 235.15 353.607 236.32C352.966 236.85 352.244 237.28 351.468 237.594C351.391 237.19 353.257 239.844 353.214 239.787C353.171 239.731 358.173 238.555 358.242 238.473C358.529 237.977 353.693 238.183 355.983 235.758C356.521 235.197 361.917 233.262 362.31 234.102C362.397 234.284 358.555 237.866 358.691 238.507C359.249 240.933 366.733 242.35 366.523 244.986C366.243 248.539 361.944 247.224 359.432 247.145C358.352 247.129 357.491 245.922 356.452 245.837C353.012 245.577 351.004 246.325 347.792 247.181C343.602 248.258 339.076 250.316 343.966 255.265C346.275 257.577 348.462 256.651 351.003 256.758C351.83 256.771 356.947 255.749 357.642 256.204C358.336 256.659 356.258 262.63 356.001 263.265L356.849 263.666M356.849 263.666C356.852 263.847 356.855 264.014 356.858 264.195C356.855 264.028 356.852 263.847 356.849 263.666Z" stroke="#B2B2B2" stroke-miterlimit="10"/>
<path d="M399.939 137.193C401.314 135.149 393.499 136.179 395.309 137.753C396.074 138.074 396.906 138.191 397.719 138.092C398.532 137.994 399.298 137.684 399.939 137.193Z" stroke="#B2B2B2" stroke-miterlimit="10"/>
<path d="M391.666 138.056C390.939 138.353 390.197 138.621 389.44 138.848C388.472 139.937 394.451 139.841 394.812 138.575C395.039 137.81 391.592 137.845 391.666 138.056Z" stroke="#B2B2B2" stroke-miterlimit="10"/>
<path d="M391.406 135.283C392.449 135.043 393.451 134.667 394.388 134.165C393.741 133.304 389.36 134.919 389.271 134.624C389.561 134.881 389.903 135.073 390.272 135.187C390.641 135.301 391.028 135.334 391.406 135.283Z" stroke="#B2B2B2" stroke-miterlimit="10"/>
<path d="M530.167 227.812C531.216 230.309 528.294 237.442 529.905 239.478C528.816 238.084 532.309 239.662 532.337 239.663C532.365 239.663 530.889 235.505 530.97 235.341C532.179 232.598 533.475 233.899 533.884 233.353C534.619 232.342 530.013 221.009 530.632 220.618C528.899 221.725 529.607 226.508 530.167 227.812Z" stroke="#B2B2B2" stroke-miterlimit="10"/>
<path d="M413.175 165.819C414.057 165.908 414.935 165.7 415.666 165.229C416.675 163.266 410.991 165.425 413.175 165.819Z" stroke="#B2B2B2" stroke-miterlimit="10"/>
<path d="M428.557 166.188C428.446 165.354 426.697 166.41 427.319 166.753C427.941 167.095 428.669 167.037 428.557 166.188Z" stroke="#B2B2B2" stroke-miterlimit="10"/>
<path d="M403.431 136.971L404.825 136.224C405.265 134.627 400.485 136.538 400.616 136.777C401.505 137.197 402.513 137.266 403.431 136.971Z" stroke="#B2B2B2" stroke-miterlimit="10"/>
<path d="M567.618 364.102C567.726 364.729 571.889 368.137 572.387 367.728C572.885 367.319 567.51 363.448 567.618 364.102Z" stroke="#B2B2B2" stroke-miterlimit="10"/>
<path d="M170.177 277.481C169.262 275.798 170.421 280.811 170.825 279.878C170.555 279.093 170.339 278.292 170.177 277.481Z" stroke="#B2B2B2" stroke-miterlimit="10"/>
<path d="M197.294 305.201C198.503 305.483 198.888 305.087 198.437 304.026C197.571 303.237 196.896 304.794 197.294 305.201Z" stroke="#B2B2B2" stroke-miterlimit="10"/>
<path d="M474.912 331.431C474.905 330.96 473.662 331.163 474.051 331.834C474.439 332.505 474.92 331.902 474.912 331.431Z" stroke="#B2B2B2" stroke-miterlimit="10"/>
<path d="M485.026 341.578C485.663 341.734 486.323 341.744 486.955 341.605C487.804 340.918 482.298 339.904 482.44 339.976C482.459 339.787 482.518 339.604 482.611 339.44C482.705 339.276 482.832 339.134 482.984 339.022C483.137 338.91 483.312 338.831 483.499 338.79C483.685 338.749 483.88 338.747 484.069 338.783C482.676 339.714 470.053 335.358 470.942 338.306C471.298 339.555 484.503 342.395 485.026 341.578Z" stroke="#B2B2B2" stroke-miterlimit="10"/>
<path d="M499.96 341.74C501.2 341.757 501.366 341.591 500.488 341.229C498.292 341.233 496.11 341.466 493.976 341.924C494.845 343.615 498.876 341.795 499.96 341.74Z" stroke="#B2B2B2" stroke-miterlimit="10"/>
<path d="M490.219 341.001C489.773 342.138 488.61 340.587 488.045 341.346C486.86 342.933 492.19 342.968 492.638 341.873C492.909 341.235 490.422 340.488 490.219 341.001Z" stroke="#B2B2B2" stroke-miterlimit="10"/>
<path d="M475.888 325.23C479.561 328.959 477.861 332.096 483.846 332.49C488.808 332.828 489.039 328.907 492.211 324.946C491.991 325.206 490 320.683 490.007 320.253C490.088 318.341 492.39 318.666 492.762 317.396C493.133 316.126 488.105 315.149 487.84 315.201C486.22 315.523 487.092 318.366 484.302 318.116C484.218 318.115 479.529 323.467 479.501 323.508C479.852 322.668 473.327 322.681 475.888 325.23Z" stroke="#B2B2B2" stroke-miterlimit="10"/>
<path d="M456.643 323.615C456.567 324.14 457.108 325.656 457.671 325.014C458.233 324.372 456.732 323.104 456.643 323.615Z" stroke="#B2B2B2" stroke-miterlimit="10"/>
<path d="M459.07 328.055C458.99 328.303 459.524 329.363 459.854 329.049C460.184 328.736 459.323 327.27 459.07 328.055Z" stroke="#B2B2B2" stroke-miterlimit="10"/>
<path d="M471.161 334.064C470.986 331.872 472.241 332.472 472.204 331.058C472.195 330.448 470.149 328.547 470.125 329.641C470.517 330.019 470.866 330.438 471.166 330.89C470.763 331.938 465.718 324.434 465.461 324.153C464.293 322.847 454.234 315.116 453.803 316.149C453.493 316.879 461.638 328.337 462.697 329.78C463.755 331.224 471.72 341.03 471.161 334.064Z" stroke="#B2B2B2" stroke-miterlimit="10"/>
<path d="M495.684 344.489C495.663 343.096 492.863 343.793 492.677 343.554C492.49 343.314 495.705 345.799 495.684 344.489Z" stroke="#B2B2B2" stroke-miterlimit="10"/>
<path d="M492.342 331.093C492.111 331.505 495.445 336.264 494.111 336.798C495.362 336.304 494.16 331.064 495.428 331.693C497.81 332.878 495.246 336.067 498.368 333.675C496.71 334.939 498.315 325.059 499.674 327.877C499.848 328.254 492.549 330.057 494.334 327.119C496.283 323.907 500.79 327.672 502.481 324.109C501.466 326.269 497.074 323.558 495.635 324.506C493.351 325.982 493.566 328.908 492.342 331.093Z" stroke="#B2B2B2" stroke-miterlimit="10"/>
<path d="M507.58 332.467C508.954 333.003 510.371 333.41 511.814 333.685C513.683 333.712 506.664 329.613 507.58 332.467Z" stroke="#B2B2B2" stroke-miterlimit="10"/>
<path d="M507.699 324.343C507.645 320.86 504.843 328.005 507.511 327.519C509.332 327.186 507.698 324.274 507.699 324.343Z" stroke="#B2B2B2" stroke-miterlimit="10"/>
<path d="M502.485 343.683C503.311 342.624 506.089 342.512 506.438 341.46C506.625 340.85 502.176 342.788 501.769 342.782C501.125 342.884 499.293 344.22 500.399 344.918C500.838 344.945 501.271 344.842 501.642 344.622C502.014 344.402 502.308 344.075 502.485 343.683Z" stroke="#B2B2B2" stroke-miterlimit="10"/>
<path d="M504.231 332.526C504.427 333.362 505.837 333.855 506.205 333.138C506.572 332.421 503.992 331.564 504.231 332.526Z" stroke="#B2B2B2" stroke-miterlimit="10"/>
<path d="M312.203 247.852C311.769 248.663 312.85 253.398 314.643 251.085C316.121 249.211 313.315 245.71 312.203 247.852Z" stroke="#B2B2B2" stroke-miterlimit="10"/>
<path d="M322.83 253.536C323.166 253.457 319.12 253.119 319.502 254.195C320.552 255.158 321.762 255.934 323.074 256.486C323.371 255.542 323.726 254.619 324.138 253.722C323.972 253.544 323.75 253.428 323.511 253.394C323.272 253.36 323.031 253.41 322.83 253.536Z" stroke="#B2B2B2" stroke-miterlimit="10"/>
<path d="M498.436 160.434C494.279 160.372 490.318 161.949 487.425 164.818C484.532 167.686 482.943 171.611 483.009 175.729C483.132 183.486 497.88 201.956 497.88 201.956L499.097 201.974C499.097 201.974 514.507 184.781 514.371 176.194C514.338 174.153 513.9 172.127 513.082 170.23C512.263 168.334 511.08 166.605 509.6 165.141C508.12 163.677 506.372 162.508 504.457 161.701C502.541 160.893 500.495 160.462 498.436 160.434ZM498.804 183.552C497.288 183.529 495.8 183.062 494.526 182.21C493.253 181.357 492.252 180.157 491.65 178.761C491.048 177.366 490.872 175.837 491.144 174.369C491.416 172.901 492.125 171.559 493.179 170.514C494.234 169.468 495.588 168.765 497.069 168.494C498.551 168.223 500.094 168.397 501.503 168.992C502.913 169.587 504.125 170.578 504.987 171.838C505.848 173.099 506.321 174.573 506.345 176.075C506.363 177.072 506.181 178.057 505.812 178.973C505.442 179.889 504.891 180.718 504.19 181.413C503.49 182.108 502.653 182.654 501.729 183.021C500.804 183.388 499.81 183.569 498.804 183.552Z" fill="#263238" stroke="#263238" stroke-linecap="round" stroke-linejoin="round"/>
<path d="M146.506 280.921C145.365 280.904 144.238 281.11 143.191 281.527C142.143 281.945 141.195 282.566 140.402 283.354C139.608 284.142 138.984 285.083 138.565 286.121C138.146 287.16 137.941 288.277 137.96 289.408C138.029 293.702 146.202 303.946 146.202 303.946L146.873 303.955C146.873 303.955 155.415 294.388 155.34 289.665C155.324 288.533 155.082 287.409 154.629 286.356C154.176 285.303 153.521 284.343 152.7 283.531C151.879 282.719 150.91 282.07 149.847 281.622C148.784 281.174 147.649 280.936 146.506 280.921ZM146.71 293.733C145.88 293.721 145.066 293.465 144.368 292.998C143.671 292.531 143.123 291.875 142.794 291.111C142.464 290.347 142.368 289.51 142.517 288.706C142.666 287.902 143.054 287.168 143.631 286.595C144.208 286.023 144.95 285.638 145.761 285.49C146.572 285.342 147.417 285.436 148.188 285.762C148.959 286.088 149.623 286.631 150.095 287.321C150.567 288.011 150.825 288.818 150.838 289.64C150.856 290.742 150.431 291.792 149.657 292.56C148.882 293.328 147.822 293.75 146.71 293.733Z" fill="#263238" stroke="#263238" stroke-linecap="round" stroke-linejoin="round"/>
<path d="M411.367 167.296C408.842 167.259 406.436 168.217 404.679 169.959C402.921 171.702 401.956 174.086 401.996 176.588C402.071 181.284 411.028 192.495 411.028 192.495L411.769 192.506C411.769 192.506 421.108 182.078 421.025 176.87C421.008 175.632 420.743 174.402 420.248 173.25C419.753 172.099 419.036 171.048 418.139 170.159C417.242 169.27 416.183 168.56 415.021 168.068C413.859 167.577 412.617 167.315 411.367 167.296ZM411.591 181.328C410.669 181.317 409.762 181.035 408.987 180.518C408.211 180 407.6 179.271 407.233 178.423C406.865 177.574 406.757 176.644 406.922 175.751C407.087 174.857 407.517 174.041 408.159 173.405C408.801 172.768 409.625 172.341 410.526 172.177C411.428 172.013 412.367 172.119 413.224 172.483C414.081 172.846 414.817 173.45 415.34 174.218C415.863 174.986 416.148 175.884 416.16 176.798C416.175 178.016 415.704 179.176 414.848 180.025C413.992 180.874 412.821 181.342 411.591 181.328Z" fill="#263238" stroke="#263238" stroke-linecap="round" stroke-linejoin="round"/>
<path d="M183.437 339.074C182.501 339.06 181.577 339.229 180.718 339.572C179.86 339.914 179.083 340.423 178.432 341.069C177.782 341.716 177.27 342.487 176.927 343.339C176.584 344.19 176.416 345.106 176.432 346.033C176.488 349.537 183.178 357.931 183.178 357.931L183.737 357.94C183.737 357.94 190.728 350.136 190.666 346.244C190.653 345.317 190.456 344.396 190.085 343.533C189.715 342.671 189.178 341.885 188.507 341.219C187.835 340.553 187.042 340.02 186.172 339.652C185.302 339.284 184.372 339.088 183.437 339.074ZM183.604 349.574C182.915 349.563 182.238 349.351 181.659 348.963C181.08 348.575 180.625 348.028 180.352 347.394C180.079 346.759 180 346.063 180.125 345.396C180.249 344.729 180.573 344.119 181.053 343.644C181.534 343.17 182.15 342.852 182.824 342.73C183.499 342.609 184.2 342.689 184.84 342.962C185.48 343.234 186.03 343.687 186.42 344.261C186.81 344.836 187.023 345.507 187.031 346.19C187.041 347.102 186.687 347.97 186.045 348.605C185.402 349.239 184.525 349.587 183.604 349.574Z" fill="#263238" stroke="#263238" stroke-linecap="round" stroke-linejoin="round"/>
<path d="M480.225 245.491C478.976 245.471 477.742 245.694 476.594 246.15C475.446 246.605 474.408 247.283 473.537 248.145C472.667 249.007 471.982 250.035 471.521 251.172C471.061 252.308 470.834 253.531 470.854 254.769C470.928 259.478 479.886 270.69 479.886 270.69L480.627 270.701C480.627 270.701 489.966 260.259 489.883 255.051C489.843 252.553 488.804 250.142 486.992 248.349C485.181 246.556 482.747 245.528 480.225 245.491ZM480.449 259.522C479.527 259.511 478.621 259.23 477.846 258.713C477.07 258.197 476.46 257.469 476.092 256.621C475.724 255.773 475.615 254.844 475.779 253.951C475.943 253.058 476.372 252.241 477.012 251.604C477.653 250.967 478.475 250.539 479.376 250.373C480.277 250.208 481.215 250.312 482.072 250.673C482.929 251.035 483.667 251.637 484.191 252.403C484.715 253.169 485.003 254.066 485.017 254.979C485.033 255.587 484.926 256.188 484.705 256.748C484.483 257.308 484.15 257.816 483.726 258.242C483.301 258.668 482.793 259.005 482.231 259.231C481.669 259.458 481.063 259.571 480.449 259.564L480.449 259.522Z" fill="#263238" stroke="#263238" stroke-linecap="round" stroke-linejoin="round"/>
<path d="M526.44 341.287C523.915 341.249 521.509 342.207 519.751 343.95C517.994 345.692 517.029 348.077 517.069 350.579C517.144 355.288 526.101 366.499 526.101 366.499L526.842 366.51C526.842 366.51 536.181 356.068 536.098 350.86C536.08 349.622 535.816 348.392 535.321 347.241C534.826 346.09 534.109 345.039 533.212 344.15C532.315 343.261 531.255 342.55 530.093 342.059C528.931 341.568 527.69 341.305 526.44 341.287ZM526.664 355.318C525.745 355.305 524.844 355.022 524.072 354.505C523.301 353.988 522.694 353.261 522.33 352.416C521.965 351.57 521.858 350.644 522.023 349.755C522.188 348.866 522.617 348.053 523.256 347.419C523.895 346.786 524.715 346.36 525.613 346.196C526.511 346.032 527.445 346.137 528.299 346.497C529.153 346.858 529.887 347.458 530.409 348.222C530.932 348.986 531.218 349.879 531.232 350.788C531.252 352.008 530.781 353.17 529.925 354.02C529.068 354.869 527.895 355.336 526.664 355.318Z" fill="#263238" stroke="#263238" stroke-linecap="round" stroke-linejoin="round"/>
<path d="M142.123 227.631C139.6 227.597 137.197 228.557 135.443 230.299C133.688 232.041 132.725 234.423 132.765 236.923C132.84 241.618 141.797 252.843 141.797 252.843L142.524 252.854C142.524 252.854 151.877 242.413 151.794 237.205C151.755 234.703 150.713 232.289 148.899 230.493C147.086 228.698 144.648 227.668 142.123 227.631ZM142.346 241.662C141.428 241.646 140.528 241.361 139.758 240.842C138.989 240.324 138.384 239.596 138.022 238.75C137.659 237.905 137.555 236.979 137.721 236.091C137.888 235.202 138.318 234.391 138.957 233.759C139.597 233.127 140.417 232.702 141.314 232.539C142.212 232.376 143.146 232.482 143.999 232.843C144.852 233.204 145.585 233.804 146.107 234.568C146.628 235.331 146.914 236.224 146.929 237.133C146.938 237.738 146.827 238.335 146.602 238.89C146.377 239.446 146.042 239.948 145.616 240.369C145.19 240.79 144.682 241.121 144.121 241.343C143.56 241.564 142.957 241.673 142.346 241.662Z" fill="#263238" stroke="#263238" stroke-linecap="round" stroke-linejoin="round"/>
<path d="M331.097 160.759C328.575 160.722 326.173 161.678 324.418 163.418C322.663 165.158 321.699 167.539 321.739 170.037C321.814 174.747 330.771 185.958 330.771 185.958L331.498 185.969C331.498 185.969 340.851 175.527 340.768 170.319C340.749 169.081 340.483 167.851 339.986 166.7C339.489 165.55 338.771 164.5 337.873 163.612C336.974 162.725 335.913 162.016 334.751 161.526C333.588 161.036 332.346 160.776 331.097 160.759ZM331.32 174.79C330.399 174.777 329.495 174.493 328.721 173.975C327.947 173.457 327.339 172.727 326.973 171.879C326.607 171.031 326.5 170.103 326.666 169.21C326.831 168.318 327.261 167.503 327.902 166.868C328.543 166.232 329.366 165.805 330.266 165.641C331.167 165.476 332.104 165.581 332.961 165.943C333.817 166.305 334.553 166.907 335.077 167.673C335.601 168.439 335.888 169.335 335.903 170.247C335.922 171.47 335.45 172.636 334.591 173.488C333.731 174.34 332.555 174.809 331.32 174.79Z" fill="#263238" stroke="#263238" stroke-linecap="round" stroke-linejoin="round"/>
<path d="M73.4759 164.46C70.9505 164.422 68.5445 165.38 66.7869 167.123C65.0294 168.866 64.0644 171.25 64.1042 173.752C64.179 178.447 73.1363 189.672 73.1363 189.672L73.8773 189.683C73.8773 189.683 83.2167 179.242 83.1338 174.033C83.1159 172.795 82.8518 171.565 82.3566 170.414C81.8614 169.263 81.1448 168.212 80.2478 167.323C79.3508 166.434 78.291 165.723 77.129 165.232C75.967 164.741 74.7256 164.478 73.4759 164.46ZM73.6992 178.491C72.7811 178.478 71.8793 178.195 71.1079 177.678C70.3365 177.162 69.73 176.434 69.3653 175.589C69.0006 174.743 68.894 173.817 69.0589 172.928C69.2238 172.039 69.6529 171.226 70.2918 170.592C70.9308 169.959 71.7509 169.533 72.6486 169.369C73.5462 169.205 74.481 169.31 75.3348 169.67C76.1886 170.031 76.9229 170.631 77.445 171.395C77.9671 172.159 78.2535 173.052 78.268 173.961C78.2837 175.18 77.8121 176.34 76.956 177.189C76.1 178.038 74.9291 178.506 73.6992 178.491Z" fill="#263238" stroke="#263238" stroke-linecap="round" stroke-linejoin="round"/>
<path d="M42.7795 405.35C40.3757 252.28 164.895 130.058 320.872 132.343C476.849 134.628 605.266 260.554 607.669 413.624" stroke="#263238" stroke-miterlimit="10" stroke-dasharray="3 3"/>
<path d="M369.664 76.2641C370.776 76.2202 371.814 75.7542 372.565 74.9625C373.316 74.1709 373.722 73.1141 373.699 72.0107C373.661 70.6758 373.106 69.3906 372.149 68.4212C371.193 67.4517 369.908 66.8722 368.56 66.8024L345.69 65.8096L345.214 65.8025L335.205 52.9904L338.773 52.78C339.302 52.7627 339.801 52.5551 340.177 52.1957C340.553 51.8364 340.779 51.3499 340.814 50.8271C340.823 50.5345 340.771 50.2414 340.661 49.9663C340.55 49.6911 340.384 49.4398 340.173 49.2282C339.962 49.0165 339.71 48.8492 339.433 48.7367C339.156 48.6242 338.861 48.5689 338.565 48.5744L331.916 48.7388L324.466 39.1271L329.433 38.8543C329.98 38.8375 330.493 38.6121 330.865 38.2249C331.237 37.8378 331.44 37.3188 331.43 36.7759C331.61 36.6008 331.73 36.374 331.774 36.1257C331.818 35.8774 331.784 35.6193 331.677 35.3859C331.57 35.1524 331.394 34.9546 331.174 34.8188C330.954 34.6829 330.699 34.6154 330.444 34.6253L321.191 34.848L316.229 28.4633C315.318 27.2865 314.162 26.3155 312.844 25.6197C311.525 24.9239 310.077 24.5205 308.602 24.4384L306.22 24.3197L317.163 46.5772C317.163 46.5772 324.393 60.8043 319.099 66.8558L293.32 67.8585L292.983 67.8535L282.417 54.3118L276.286 53.6102L281.541 69.5138L278.746 69.916C278.68 69.915 278.616 69.9403 278.569 69.9864C278.523 70.0326 278.497 70.0957 278.498 70.1619C278.499 70.2281 278.527 70.292 278.575 70.3396C278.623 70.3871 278.688 70.4144 278.754 70.4154L281.89 71.2111L276.911 87.295L283.67 87.049L292.451 73.9205L293.041 74.068L316.73 75.4335C319.814 76.5059 324.392 79.0568 322.87 84.5542C320.633 92.6624 308.002 118.036 308.002 118.036L311.984 117.443C314.578 117.059 316.898 115.711 318.477 113.671L323.005 107.83L330.63 107.402C331.135 107.35 331.601 107.125 331.948 106.766C332.294 106.407 332.501 105.936 332.531 105.433C332.542 105.141 332.492 104.848 332.382 104.572C332.272 104.297 332.106 104.045 331.894 103.834C331.682 103.623 331.429 103.457 331.152 103.347C330.874 103.237 330.578 103.185 330.283 103.195L326.391 103.289L333.045 94.692L340.67 94.2648C341.2 94.2475 341.699 94.0398 342.074 93.6805C342.45 93.3212 342.676 92.8347 342.712 92.3118C342.721 92.0193 342.668 91.7262 342.558 91.451C342.448 91.1758 342.282 90.9245 342.07 90.7129C341.859 90.5013 341.607 90.3339 341.331 90.2214C341.054 90.1089 340.758 90.0537 340.463 90.0592L336.557 90.1535L346.669 77.1142L369.664 76.2641Z" fill="#263238"/>
<path d="M231.613 240.645L263.598 218.368L242.29 183.299L131.129 159.734L120.438 217.079L231.613 240.645Z" fill="white" stroke="#263238" stroke-miterlimit="10"/>
<path d="M145.631 180.143L149.273 180.916L148.796 183.441L145.154 182.668L143.776 189.966L140.974 189.372L144.297 171.67L151.763 173.274L151.286 175.799L146.65 174.804L145.631 180.143Z" fill="#263238"/>
<path d="M156.213 192.58C156.11 191.827 156.16 191.066 156.36 190.341L156.888 187.583C157.198 185.941 156.74 185.215 155.451 184.933L154.471 184.725L153.188 191.927L150.388 191.333L153.711 173.635L157.912 174.54C160.838 175.164 161.841 176.783 161.325 179.5L161.068 180.88C160.72 182.701 159.913 183.768 158.55 184.08C159.848 184.956 160.052 186.398 159.704 188.246L159.203 191.005C159.012 191.723 158.977 192.476 159.098 193.217L156.213 192.58ZM155.965 176.752L154.934 182.187L156.04 182.425C157.09 182.647 157.811 182.326 158.082 180.919L158.417 179.167C158.648 177.898 158.317 177.257 157.323 177.035L155.965 176.752Z" fill="#263238"/>
<path d="M165.908 183.915L169.773 184.746L169.296 187.27L165.431 186.453L164.452 191.626L169.325 192.666L168.848 195.204L161.188 193.556L164.511 175.857L172.213 177.506L171.736 180.03L166.863 178.99L165.908 183.915Z" fill="#263238"/>
<path d="M175.869 185.981L179.748 186.812L179.272 189.337L175.392 188.506L174.427 193.693L179.3 194.732L178.824 197.257L171.107 195.594L174.43 177.895L182.119 179.543L181.656 182.068L176.768 181.028L175.869 185.981Z" fill="#263238"/>
<path d="M143.657 195.208C146.457 195.788 147.506 197.712 146.964 200.54L146.861 201.092L144.201 200.527L144.343 199.796C144.574 198.527 144.147 197.94 143.25 197.747C142.354 197.554 141.746 197.932 141.515 199.188C140.832 202.829 146.22 204.692 145.267 209.741C144.739 212.583 142.987 213.857 140.215 213.291C137.443 212.725 136.324 210.786 136.851 207.944L137.058 206.868L139.718 207.433L139.487 208.702C139.255 209.957 139.725 210.531 140.621 210.724C141.517 210.917 142.168 210.581 142.414 209.367C143.096 205.726 137.708 203.863 138.662 198.8C139.188 195.889 140.898 194.573 143.657 195.208Z" fill="#263238"/>
<path d="M149.43 214.947L146.627 214.339L149.937 196.634L152.739 197.228L151.309 204.818L154.517 205.502L155.948 197.912L158.75 198.534L155.427 216.225L152.554 215.616L153.971 208.026L150.762 207.342L149.43 214.947Z" fill="#263238"/>
<path d="M161.411 199.048L164.203 199.653L160.865 217.308L158.074 216.716L161.411 199.048Z" fill="#263238"/>
<path d="M174.326 206.286L173.901 208.59C173.36 211.418 171.69 212.708 168.86 212.072L167.46 211.788L166.168 218.425L163.366 217.83L166.801 200.129L171.004 201.021C173.806 201.629 174.854 203.457 174.326 206.286ZM169.126 203.262L168.006 209.251L169.407 209.534C170.303 209.727 170.801 209.43 171.116 208.175L171.605 205.526C171.85 204.257 171.438 203.753 170.541 203.56L169.126 203.262Z" fill="#263238"/>
<path d="M184.523 208.408L184.098 210.698C183.556 213.527 181.887 214.817 179.057 214.18L177.726 213.898L176.435 220.534L173.633 219.939L176.956 202.237L181.159 203.129C183.961 203.737 185.064 205.566 184.523 208.408ZM179.337 205.371L178.203 211.359L179.534 211.655C180.444 211.835 180.998 211.538 181.244 210.297L181.733 207.648C181.978 206.378 181.565 205.874 180.668 205.681L179.337 205.371Z" fill="#263238"/>
<path d="M187.156 204.373L189.948 204.978L186.624 222.647L183.833 222.041L187.156 204.373Z" fill="#263238"/>
<path d="M194.139 210.918L191.73 223.739L189.194 223.203L192.517 205.498L196.062 206.255L196.965 217.464L198.963 206.879L201.471 207.414L198.202 225.052L195.302 224.442L194.139 210.918Z" fill="#263238"/>
<path d="M206.795 216.59L210.743 217.422L209.687 223.036C209.16 225.878 207.407 227.152 204.635 226.586C201.863 226.02 200.73 224.067 201.272 221.239L202.997 212.039C203.525 209.211 205.277 207.922 208.049 208.489C210.822 209.055 211.955 211.008 211.413 213.835L211.091 215.56L208.431 214.995L208.778 213.091C209.023 211.823 208.539 211.234 207.643 211.042C206.747 210.849 206.096 211.199 205.851 212.468L204.062 222.083C203.817 223.338 204.3 223.912 205.196 224.105C206.092 224.298 206.743 223.961 206.989 222.748L207.594 219.478L206.32 219.211L206.795 216.59Z" fill="#263238"/>
<path d="M264.132 217.525C264.132 217.525 268.244 229.898 286.001 230.146C303.758 230.394 301.439 218.382 336.193 216.043C370.947 213.705 392.082 249.953 392.082 249.953" stroke="#263238" stroke-miterlimit="10"/>
<path d="M417.188 308.022L222.329 305.133L224.322 430.314L419.181 433.202L417.188 308.022Z" fill="#006EDD" stroke="#263238" stroke-linecap="round" stroke-linejoin="round"/>
<path d="M417.947 309.069L222.45 306.339L253.564 247.559L449.06 250.289L417.947 309.069Z" fill="#006EDD" stroke="#263238" stroke-linecap="round" stroke-linejoin="round"/>
<path d="M238.738 276.52L240.151 276.536" stroke="#263238" stroke-miterlimit="10"/>
<path d="M242.93 276.567L431.526 278.687" stroke="#263238" stroke-miterlimit="10" stroke-dasharray="1.98 1.98"/>
<path d="M432.926 278.703L434.339 278.719" stroke="#263238" stroke-miterlimit="10"/>
<path d="M449.025 250.275L450.727 372.391L420.086 432.386L418.356 308.257L449.025 250.275Z" fill="#006EDD"/>
<mask id="mask0_4027_11" style="mask-type:luminance" maskUnits="userSpaceOnUse" x="418" y="250" width="33" height="183">
<path d="M448.912 250.227L450.681 372.409L420.212 432.425L418.415 308.23L448.912 250.227Z" fill="white"/>
</mask>
<g mask="url(#mask0_4027_11)">
<path opacity="0.2" d="M448.912 250.227L450.681 372.409L420.212 432.425L418.415 308.23L448.912 250.227Z" fill="black"/>
</g>
<path d="M449.025 250.275L450.727 372.391L420.086 432.386L418.356 308.257L449.025 250.275Z" stroke="#263238" stroke-linecap="round" stroke-linejoin="round"/>
<path d="M302.072 307.199L329.855 307.613L358.782 249.308L331.014 248.895L302.072 307.199Z" fill="white" stroke="#263238" stroke-miterlimit="10"/>
<path d="M330.435 359.218L316.693 349.296L302.557 358.812L301.746 306.861L329.624 307.267L330.435 359.218Z" fill="white" stroke="#263238" stroke-miterlimit="10"/>
<path d="M211.265 248.861L201.996 248.757" stroke="#263238" stroke-miterlimit="10"/>
<path d="M246.18 249.254L218.386 248.941" stroke="#263238" stroke-miterlimit="10"/>
<path d="M219.038 305.121L174.867 304.624" stroke="#263238" stroke-miterlimit="10"/>
<path d="M181.909 360.172L175.508 360.1" stroke="#263238" stroke-miterlimit="10"/>
<path d="M219.675 360.597L189.041 360.252" stroke="#263238" stroke-miterlimit="10"/>
<path d="M219.313 329.392L197.934 329.151" stroke="#263238" stroke-miterlimit="10"/>
<path d="M239.265 266.512L217.886 266.272" stroke="#263238" stroke-miterlimit="10"/>
<path d="M220.203 406.366L198.824 406.125" stroke="#263238" stroke-miterlimit="10"/>
</svg>
