<svg width="36" height="36" viewBox="0 0 36 36" fill="none" xmlns="http://www.w3.org/2000/svg">
<path d="M16.5 31.5V28.5H28.5V17.85C28.5 14.925 27.4815 12.444 25.4445 10.407C23.4075 8.37 20.926 7.351 18 7.35C15.074 7.349 12.593 8.368 10.557 10.407C8.521 12.446 7.502 14.927 7.5 17.85V27H6C5.175 27 4.469 26.7065 3.882 26.1195C3.295 25.5325 3.001 24.826 3 24V21C3 20.475 3.1315 19.9815 3.3945 19.5195C3.6575 19.0575 4.026 18.6885 4.5 18.4125L4.6125 16.425C4.8125 14.725 5.3065 13.15 6.0945 11.7C6.8825 10.25 7.87 8.9875 9.057 7.9125C10.244 6.8375 11.606 6 13.143 5.4C14.68 4.8 16.299 4.5 18 4.5C19.701 4.5 21.3135 4.8 22.8375 5.4C24.3615 6 25.724 6.8315 26.925 7.8945C28.126 8.9575 29.1135 10.2135 29.8875 11.6625C30.6615 13.1115 31.1615 14.6865 31.3875 16.3875L31.5 18.3375C31.975 18.5625 32.344 18.9 32.607 19.35C32.87 19.8 33.001 20.275 33 20.775V24.225C33 24.725 32.869 25.2 32.607 25.65C32.345 26.1 31.976 26.4375 31.5 26.6625V28.5C31.5 29.325 31.2065 30.0315 30.6195 30.6195C30.0325 31.2075 29.326 31.501 28.5 31.5H16.5ZM13.5 21C13.075 21 12.719 20.856 12.432 20.568C12.145 20.28 12.001 19.924 12 19.5C11.999 19.076 12.143 18.72 12.432 18.432C12.721 18.144 13.077 18 13.5 18C13.923 18 14.2795 18.144 14.5695 18.432C14.8595 18.72 15.003 19.076 15 19.5C14.997 19.924 14.853 20.2805 14.568 20.5695C14.283 20.8585 13.927 21.002 13.5 21ZM22.5 21C22.075 21 21.719 20.856 21.432 20.568C21.145 20.28 21.001 19.924 21 19.5C20.999 19.076 21.143 18.72 21.432 18.432C21.721 18.144 22.077 18 22.5 18C22.923 18 23.2795 18.144 23.5695 18.432C23.8595 18.72 24.003 19.076 24 19.5C23.997 19.924 23.853 20.2805 23.568 20.5695C23.283 20.8585 22.927 21.002 22.5 21ZM9.0375 18.675C8.8625 16.025 9.6625 13.75 11.4375 11.85C13.2125 9.95 15.425 9 18.075 9C20.3 9 22.2565 9.706 23.9445 11.118C25.6325 12.53 26.651 14.337 27 16.539C24.725 16.513 22.6315 15.9 20.7195 14.7C18.8075 13.5 17.3385 11.875 16.3125 9.825C15.9125 11.825 15.069 13.6065 13.782 15.1695C12.495 16.7325 10.9135 17.901 9.0375 18.675Z" fill="#004285"/>
</svg>
